<?xml version="1.0" encoding="iso-8859-1"?>
<!-- Generator: Adobe Illustrator 19.0.0, SVG Export Plug-In . SVG Version: 6.00 Build 0)  -->
<svg version="1.1" id="Capa_1" xmlns="http://www.w3.org/2000/svg" xmlns:xlink="http://www.w3.org/1999/xlink" x="0px" y="0px"
	 viewBox="0 0 512 512" style="enable-background:new 0 0 512 512;" xml:space="preserve">
<g>
	<rect x="105.931" y="44.138" style="fill:#3B97D3;" width="300.138" height="414.897"/>
	<g>
		<path style="fill:#2C3E50;" d="M406.069,70.621V17.655C406.04,7.917,398.152,0.029,388.414,0H123.586
			c-9.739,0.029-17.626,7.917-17.655,17.655v52.966H406.069z"/>
		<path style="fill:#2C3E50;" d="M406.069,432.552v61.793c-0.029,9.739-7.917,17.626-17.655,17.655H123.586
			c-9.739-0.029-17.626-7.917-17.655-17.655v-61.793H406.069z"/>
	</g>
	<path style="fill:#35495E;" d="M264.828,485.517h-17.655c-4.875,0-8.828-3.952-8.828-8.828s3.952-8.828,8.828-8.828h17.655
		c4.875,0,8.828,3.952,8.828,8.828S269.703,485.517,264.828,485.517z"/>
	<path style="fill:#2980BA;" d="M406.069,105.931c0,0-70.621,256-300.138,264.828v61.793h300.138V105.931z"/>
	<g>
		<path style="fill:#89C1E5;" d="M132.414,150.069c-4.875,0-8.828-3.952-8.828-8.828V97.103c0-4.875,3.952-8.828,8.828-8.828
			c4.875,0,8.828,3.952,8.828,8.828v44.138C141.241,146.117,137.289,150.069,132.414,150.069z"/>
		<circle style="fill:#89C1E5;" cx="132.414" cy="176.552" r="8.828"/>
	</g>
	<path style="fill:#F0C419;" d="M223.338,171.847l14.618,21.919c2.914,4.37,1.959,10.249-2.189,13.471l-17.991,13.992
		c-3.907,3.006-5.032,8.415-2.648,12.729c8.92,17.111,20.793,32.51,35.072,45.489c12.989,14.283,28.401,26.156,45.524,35.072
		c4.315,2.384,9.723,1.258,12.729-2.648l13.992-17.991c3.222-4.148,9.101-5.103,13.471-2.189l22.616,15.078l25.441,16.967
		c4.453,2.963,5.791,8.903,3.037,13.489l-12.058,20.1c-3.199,5.433-8.368,9.426-14.433,11.149
		c-20.039,5.5-64.238,6.612-135.062-64.238s-69.738-115.041-64.238-135.062c1.724-6.065,5.716-11.234,11.149-14.433l20.074-12.067
		c4.585-2.754,10.526-1.417,13.489,3.037L223.338,171.847z"/>
</g>
<g>
</g>
<g>
</g>
<g>
</g>
<g>
</g>
<g>
</g>
<g>
</g>
<g>
</g>
<g>
</g>
<g>
</g>
<g>
</g>
<g>
</g>
<g>
</g>
<g>
</g>
<g>
</g>
<g>
</g>
</svg>
