<?xml version="1.0" encoding="iso-8859-1"?>
<!-- Generator: Adobe Illustrator 19.0.0, SVG Export Plug-In . SVG Version: 6.00 Build 0)  -->
<svg version="1.1" id="Capa_1" xmlns="http://www.w3.org/2000/svg" xmlns:xlink="http://www.w3.org/1999/xlink" x="0px" y="0px"
	 viewBox="0 0 512 512" style="enable-background:new 0 0 512 512;" xml:space="preserve">
<g>
	<g>
		<path style="fill:#894B9D;" d="M101.517,70.621h-35.31c-4.875,0-8.828-3.952-8.828-8.828s3.952-8.828,8.828-8.828h35.31
			c4.875,0,8.828,3.952,8.828,8.828S106.393,70.621,101.517,70.621z"/>
		<path style="fill:#894B9D;" d="M101.517,167.724h-35.31c-4.875,0-8.828-3.952-8.828-8.828s3.952-8.828,8.828-8.828h35.31
			c4.875,0,8.828,3.952,8.828,8.828S106.393,167.724,101.517,167.724z"/>
		<path style="fill:#894B9D;" d="M101.517,264.828h-35.31c-4.875,0-8.828-3.952-8.828-8.828s3.952-8.828,8.828-8.828h35.31
			c4.875,0,8.828,3.952,8.828,8.828S106.393,264.828,101.517,264.828z"/>
		<path style="fill:#894B9D;" d="M101.517,361.931h-35.31c-4.875,0-8.828-3.952-8.828-8.828s3.952-8.828,8.828-8.828h35.31
			c4.875,0,8.828,3.952,8.828,8.828S106.393,361.931,101.517,361.931z"/>
		<path style="fill:#894B9D;" d="M101.517,459.034h-35.31c-4.875,0-8.828-3.952-8.828-8.828c0-4.875,3.952-8.828,8.828-8.828h35.31
			c4.875,0,8.828,3.952,8.828,8.828C110.345,455.082,106.393,459.034,101.517,459.034z"/>
	</g>
	<path style="fill:#F3D55B;" d="M454.621,132.414v361.931c0,9.751-7.905,17.655-17.655,17.655H119.172
		c-9.751,0-17.655-7.905-17.655-17.655V17.655C101.517,7.904,109.422,0,119.172,0h317.793c9.751,0,17.655,7.904,17.655,17.655
		V132.414z"/>
	<g>
		<path style="fill:#F29C1F;" d="M136.828,70.621c-0.592-0.019-1.182-0.078-1.766-0.177c-0.551-0.104-1.086-0.282-1.589-0.53
			c-0.563-0.196-1.097-0.466-1.589-0.803l-1.324-1.05c-1.611-1.693-2.525-3.931-2.56-6.268c0.013-1.157,0.253-2.299,0.706-3.363
			c0.448-1.067,1.075-2.049,1.854-2.904c2.536-2.508,6.333-3.243,9.622-1.863c1.082,0.426,2.072,1.059,2.913,1.863
			c0.779,0.855,1.406,1.838,1.854,2.904c0.496,1.05,0.737,2.202,0.706,3.363c-0.035,2.337-0.949,4.574-2.56,6.268
			c-0.863,0.773-1.847,1.399-2.913,1.854C139.12,70.364,137.981,70.603,136.828,70.621z"/>
		<path style="fill:#F29C1F;" d="M136.828,167.724c-0.592-0.019-1.182-0.078-1.766-0.177c-0.551-0.104-1.086-0.282-1.589-0.53
			c-0.563-0.196-1.097-0.466-1.589-0.803l-1.324-1.051c-1.611-1.693-2.525-3.931-2.56-6.268c0.013-1.157,0.253-2.299,0.706-3.363
			c0.448-1.067,1.075-2.049,1.854-2.904c2.536-2.508,6.333-3.243,9.622-1.863c1.081,0.43,2.069,1.062,2.913,1.863
			c0.779,0.855,1.406,1.838,1.854,2.904c0.496,1.05,0.737,2.202,0.706,3.363c-0.035,2.337-0.949,4.574-2.56,6.268
			c-0.861,0.776-1.845,1.403-2.913,1.854C139.12,167.467,137.981,167.707,136.828,167.724z"/>
		<path style="fill:#F29C1F;" d="M136.828,264.828c-0.592-0.015-1.182-0.074-1.766-0.177c-0.553-0.096-1.089-0.275-1.589-0.53
			c-0.563-0.196-1.097-0.466-1.589-0.803l-1.324-1.051c-1.612-1.693-2.526-3.931-2.56-6.268c0.013-1.157,0.253-2.299,0.706-3.363
			c0.448-1.067,1.075-2.049,1.854-2.904c2.536-2.508,6.333-3.243,9.622-1.863c1.079,0.433,2.067,1.065,2.913,1.863
			c0.779,0.855,1.406,1.838,1.854,2.904c0.495,1.051,0.736,2.202,0.706,3.363c-0.034,2.337-0.948,4.575-2.56,6.268
			c-0.861,0.776-1.845,1.403-2.913,1.854C139.121,264.574,137.981,264.814,136.828,264.828z"/>
		<path style="fill:#F29C1F;" d="M136.828,361.931c-0.592-0.015-1.182-0.074-1.766-0.177c-0.553-0.096-1.089-0.275-1.589-0.53
			c-0.564-0.193-1.099-0.463-1.589-0.803l-1.324-1.05c-1.612-1.693-2.526-3.931-2.56-6.268c0.014-1.154,0.254-2.293,0.706-3.354
			c0.448-1.069,1.075-2.055,1.854-2.913c2.536-2.508,6.333-3.243,9.622-1.863c1.079,0.433,2.067,1.065,2.913,1.863
			c0.779,0.859,1.406,1.844,1.854,2.913c0.495,1.047,0.737,2.196,0.706,3.354c-0.034,2.337-0.948,4.575-2.56,6.268
			c-0.859,0.779-1.844,1.406-2.913,1.854C139.121,361.677,137.981,361.917,136.828,361.931z"/>
		<path style="fill:#F29C1F;" d="M136.828,459.034c-0.592-0.015-1.182-0.074-1.766-0.177c-0.553-0.096-1.089-0.275-1.589-0.53
			c-0.563-0.193-1.097-0.46-1.589-0.794l-1.324-1.059c-1.612-1.693-2.526-3.931-2.56-6.268c0.014-1.154,0.254-2.293,0.706-3.354
			c0.448-1.069,1.075-2.055,1.854-2.913c2.538-2.505,6.335-3.236,9.622-1.854c1.08,0.427,2.069,1.056,2.913,1.854
			c0.779,0.859,1.406,1.844,1.854,2.913c0.495,1.047,0.737,2.196,0.706,3.354c-0.034,2.337-0.948,4.575-2.56,6.268
			c-0.859,0.779-1.844,1.406-2.913,1.854C139.121,458.781,137.981,459.021,136.828,459.034z"/>
	</g>
	<g>
		<path style="fill:#894B9D;" d="M269.241,88.276h17.655c19.501,0,35.31,15.809,35.31,35.31v35.31
			c0,19.501-15.809,35.31-35.31,35.31h-17.655c-19.501,0-35.31-15.809-35.31-35.31v-35.31
			C233.931,104.085,249.74,88.276,269.241,88.276z"/>
		<path style="fill:#894B9D;" d="M307.147,308.966h41.543v-44.138c0.555-18.922-14.315-34.72-33.236-35.31h-74.77
			c-18.92,0.591-33.79,16.389-33.236,35.31v44.138H307.147z"/>
	</g>
	<g>
		<path style="fill:#3D324C;" d="M207.448,379.586H348.69c4.875,0,8.828-3.952,8.828-8.828s-3.952-8.828-8.828-8.828H207.448
			c-4.875,0-8.828,3.952-8.828,8.828S202.573,379.586,207.448,379.586z"/>
		<path style="fill:#3D324C;" d="M348.69,414.897H207.448c-4.875,0-8.828,3.952-8.828,8.828c0,4.875,3.952,8.828,8.828,8.828H348.69
			c4.875,0,8.828-3.952,8.828-8.828C357.517,418.849,353.565,414.897,348.69,414.897z"/>
	</g>
</g>
<g>
</g>
<g>
</g>
<g>
</g>
<g>
</g>
<g>
</g>
<g>
</g>
<g>
</g>
<g>
</g>
<g>
</g>
<g>
</g>
<g>
</g>
<g>
</g>
<g>
</g>
<g>
</g>
<g>
</g>
</svg>
