<?xml version="1.0" encoding="iso-8859-1"?>
<!-- Generator: Adobe Illustrator 19.0.0, SVG Export Plug-In . SVG Version: 6.00 Build 0)  -->
<svg xmlns="http://www.w3.org/2000/svg" xmlns:xlink="http://www.w3.org/1999/xlink" version="1.1" id="Layer_1" x="0px" y="0px" viewBox="0 0 512 512" style="enable-background:new 0 0 512 512;" xml:space="preserve">
<rect x="183.976" y="357.984" width="144.08" height="108.336"/>
<polygon style="fill:#333333;" points="183.976,376.72 269.688,376.72 183.976,434.624 "/>
<g>
	<path style="fill:#CCCCCC;" d="M369.52,487.28H142.496c-8.808,0-16-7.208-16-16l0,0c0-8.808,7.208-16,16-16h227.008   c8.808,0,16,7.208,16,16l0,0C385.52,480.088,378.312,487.28,369.52,487.28z"/>
	<path style="fill:#CCCCCC;" d="M480,376.72H32c-17.6,0-32-14.4-32-32v-288c0-17.6,14.4-32,32-32h448c17.6,0,32,14.4,32,32v288   C512,362.32,497.6,376.72,480,376.72z"/>
</g>
<rect x="21.968" y="46.656" style="fill:#FFFFFF;" width="468.08" height="308.128"/>
<g>
	<polygon style="fill:#CCCCCC;" points="490.064,146.976 262.648,146.976 262.648,92.976 21.968,92.976 21.968,84.976    270.648,84.976 270.648,138.976 490.064,138.976  "/>
	<polygon style="fill:#CCCCCC;" points="427.872,354.784 419.872,354.784 419.872,246.464 74.704,246.464 74.704,88.976    82.704,88.976 82.704,238.464 427.872,238.464  "/>
	<rect x="171.712" y="242" style="fill:#CCCCCC;" width="8" height="112.8"/>
	<rect x="420.08" y="46.656" style="fill:#CCCCCC;" width="8" height="96.32"/>
</g>
<polygon style="fill:#E21B1B;" points="137.296,319.424 137.296,122.224 216.216,82.016 295.568,133.176 374.704,82.016   374.704,271.92 295.568,319.424 216.432,270.088 "/>
<g>
	<g>
		<rect x="292.152" y="121.96" style="fill:#FFFFFF;" width="8" height="204.384"/>
		<rect x="212.448" y="74.856" style="fill:#FFFFFF;" width="8" height="206.288"/>
	</g>
</g>
<g>
</g>
<g>
</g>
<g>
</g>
<g>
</g>
<g>
</g>
<g>
</g>
<g>
</g>
<g>
</g>
<g>
</g>
<g>
</g>
<g>
</g>
<g>
</g>
<g>
</g>
<g>
</g>
<g>
</g>
</svg>
