<?xml version="1.0" encoding="iso-8859-1"?>
<!-- Generator: Adobe Illustrator 19.0.0, SVG Export Plug-In . SVG Version: 6.00 Build 0)  -->
<svg xmlns="http://www.w3.org/2000/svg" xmlns:xlink="http://www.w3.org/1999/xlink" version="1.1" id="Layer_1" x="0px" y="0px" viewBox="0 0 511.992 511.992" style="enable-background:new 0 0 511.992 511.992;" xml:space="preserve">
<path style="fill:#FFFFFF;" d="M34.904,388.088C17.864,388.088,4,374.224,4,357.184V208.992c0-17.04,13.864-30.904,30.904-30.904  h442.184c17.04,0,30.904,13.864,30.904,30.904v148.184c0,17.04-13.864,30.904-30.904,30.904H34.904V388.088z"/>
<path style="fill:#E04F5F;" d="M477.096,182.088c14.84,0,26.904,12.072,26.904,26.904v148.184c0,14.84-12.072,26.904-26.904,26.904  H34.904C20.072,384.088,8,372.016,8,357.184V208.992c0-14.84,12.072-26.904,26.904-26.904L477.096,182.088 M477.096,174.088H34.904  C15.704,174.088,0,189.8,0,208.992v148.184c0,19.2,15.712,34.904,34.904,34.904h442.184c19.2,0,34.904-15.712,34.904-34.904V208.992  C512,189.792,496.288,174.088,477.096,174.088L477.096,174.088z"/>
<path d="M240.864,239.832h43.208v11.216H254.52v20.656h27.552v11.216H254.52v31.776h-13.656L240.864,239.832L240.864,239.832z"/>
<path d="M308.936,245.504c0,4.112-3,7.328-7.776,7.328c-4.552,0-7.552-3.216-7.552-7.328c0-4.224,3.112-7.448,7.664-7.448  C305.936,238.056,308.832,241.272,308.936,245.504z M294.384,314.704V260.6h13.784v54.104H294.384z"/>
<path d="M322.816,276.712c0-6.216-0.112-11.44-0.44-16.112h11.992l0.664,8.112h0.336c2.336-4.216,8.216-9.328,17.216-9.328  c9.448,0,19.216,6.112,19.216,23.216v32.104h-13.664V284.16c0-7.776-2.888-13.664-10.328-13.664c-5.448,0-9.216,3.888-10.664,8  c-0.448,1.216-0.552,2.88-0.552,4.44v31.776h-13.784v-38H322.816z"/>
<path d="M436.208,235.832v63.648c0,5.552,0.216,11.552,0.448,15.216h-12.224l-0.552-8.552h-0.216c-3.216,6-9.776,9.776-17.664,9.776  c-12.88,0-23.104-10.992-23.104-27.656c-0.12-18.112,11.216-28.88,24.208-28.88c7.448,0,12.776,3.112,15.216,7.112h0.224V235.84  h13.664V235.832z M422.544,283.16c0-1.112-0.112-2.448-0.336-3.552c-1.216-5.336-5.552-9.664-11.776-9.664  c-8.776,0-13.664,7.776-13.664,17.88c0,9.888,4.888,17.112,13.552,17.112c5.552,0,10.44-3.784,11.776-9.664  c0.336-1.224,0.448-2.552,0.448-4V283.16z"/>
<ellipse style="fill:#CCCCCC;" cx="124.904" cy="333.68" rx="52.088" ry="10.384"/>
<path style="fill:#F91E1E;" d="M124.976,119.912c-40.768,0-73.816,33.048-73.816,73.816c0,29.144,16.896,54.336,41.424,66.336  l32.392,73.608V119.912z"/>
<path style="fill:#E21B1B;" d="M124.976,333.68l32.392-73.608c24.528-12,41.424-37.192,41.424-66.336  c0-40.768-33.048-73.816-73.816-73.816C124.976,119.92,124.976,333.68,124.976,333.68z"/>
<path style="fill:#FFFFFF;" d="M124.976,168.2c14.096,0,25.528,11.432,25.528,25.528s-11.432,25.528-25.528,25.528  s-25.528-11.432-25.528-25.528S110.88,168.2,124.976,168.2z"/>
<g>
</g>
<g>
</g>
<g>
</g>
<g>
</g>
<g>
</g>
<g>
</g>
<g>
</g>
<g>
</g>
<g>
</g>
<g>
</g>
<g>
</g>
<g>
</g>
<g>
</g>
<g>
</g>
<g>
</g>
</svg>
