<svg height="496pt" viewBox="0 0 496 496" width="496pt" xmlns="http://www.w3.org/2000/svg"><path d="m476.71875 156.71875c7.203125 7.203125 11.28125 17.042969 11.28125 27.28125s-4.078125 20.078125-11.28125 27.28125l-12.71875 12.71875-48-48h-16l-80-80v-16l-48-48 12.71875-12.71875c7.203125-7.203125 17.042969-11.28125 27.28125-11.28125s20.078125 4.078125 27.28125 11.28125zm0 0" fill="#838f9b"/><path d="m232 456-20.71875 20.71875c-7.203125 7.203125-17.042969 11.28125-27.28125 11.28125s-20.078125-4.078125-27.28125-11.28125l-137.4375-137.4375c-7.203125-7.203125-11.28125-17.042969-11.28125-27.28125s4.078125-20.078125 11.28125-27.28125l20.71875-20.71875zm0 0" fill="#838f9b"/><path d="m416 176h-16l-80-80v-16l-48-48-232 232 192 192 232-232zm0 0" fill="#e6e9ed"/><path d="m376 200-112-112-176 176 144 144 176-176zm0 0" fill="#69d6f4"/><path d="m239.519531 64.480469c5.441407 12.078125 8.480469 25.441406 8.480469 39.519531v4.960938c0 17.679687-4.878906 35.039062-14.078125 50.078124l-69.761719 114.160157c-2.558594 4.242187-7.199218 6.800781-12.160156 6.800781s-9.601562-2.558594-12.160156-6.800781l-23.121094-37.917969-18.238281-29.761719-28.402344-46.480469c-9.199219-15.039062-14.078125-32.398437-14.078125-50.078124v-4.960938c0-26.558594 10.71875-50.558594 28.078125-67.921875 17.363281-17.359375 41.363281-28.078125 67.921875-28.078125 38.960938 0 72.480469 23.199219 87.519531 56.480469zm0 0" fill="#ff826e"/><path d="m216 104c0 35.347656-28.652344 64-64 64s-64-28.652344-64-64 28.652344-64 64-64 64 28.652344 64 64zm0 0" fill="#fcd770"/><path d="m145.171875 227.5625 7.3125-11.964844 13.652344 8.339844-7.3125 11.96875zm0 0"/><path d="m160.828125 201.941406 8.339844-13.652344 13.652343 8.34375-8.339843 13.652344zm0 0"/><path d="m90.339844 373.65625 11.3125-11.316406 36 36-11.3125 11.316406zm0 0"/><path d="m362.34375 101.660156 11.3125-11.3125 32 32-11.3125 11.3125zm0 0"/><path d="m424 144c0 4.417969-3.582031 8-8 8s-8-3.582031-8-8 3.582031-8 8-8 8 3.582031 8 8zm0 0"/><path d="m360 80c0 4.417969-3.582031 8-8 8s-8-3.582031-8-8 3.582031-8 8-8 8 3.582031 8 8zm0 0"/><path d="m482.34375 151.03125-137.375-137.375c-8.800781-8.808594-20.511719-13.65625-32.96875-13.65625s-24.167969 4.847656-32.96875 13.65625l-37.574219 37.574219c-18.121093-30.605469-51.386719-51.230469-89.457031-51.230469-57.34375 0-104 46.65625-104 104v4.992188c0 19.144531 5.28125 37.886718 15.257812 54.222656l25.109376 41.097656-74.71875 74.71875c-8.671876 8.679688-13.648438 20.695312-13.648438 32.96875s4.976562 24.289062 13.65625 32.96875l137.375 137.375c8.800781 8.808594 20.511719 13.65625 32.96875 13.65625s24.167969-4.847656 32.96875-13.65625l265.375-265.375c8.679688-8.679688 13.65625-20.695312 13.65625-32.96875s-4.976562-24.289062-13.65625-32.96875zm-218.34375-51.71875 132.6875 132.6875-164.6875 164.6875-132.6875-132.6875 15.847656-15.847656 17.839844 29.191406c4.015625 6.566406 11.304688 10.65625 19 10.65625h120c13.230469 0 24-10.769531 24-24s-10.769531-24-24-24h-32c-4.40625 0-8-3.585938-8-8s3.59375-8 8-8h56v-16h-56c-13.230469 0-24 10.769531-24 24s10.769531 24 24 24h32c4.40625 0 8 3.585938 8 8s-3.59375 8-8 8h-97.734375l66.46875-108.785156c9.984375-16.335938 15.265625-35.078125 15.265625-54.222656v-1.679688zm-200 9.679688v-4.992188c0-48.519531 39.480469-88 88-88s88 39.480469 88 88v4.992188c0 16.191406-4.464844 32.0625-12.910156 45.878906l-69.738282 114.128906c-2.261718 3.703125-8.429687 3.703125-10.6875 0l-69.742187-114.128906c-8.457031-13.816406-12.921875-29.6875-12.921875-45.878906zm42.585938 125.121093-29.898438 29.886719 155.3125 155.3125 187.3125-187.3125-155.3125-155.3125-9.625 9.625c-1.183594-6.878906-3.039062-13.519531-5.503906-19.863281l23.128906-23.136719 40 40v16l84.6875 84.6875h16l40 40-220.6875 220.6875-180.6875-180.6875 45.640625-45.640625zm99.070312 236.917969c-11.566406 11.5625-31.746094 11.5625-43.3125 0l-137.375-137.375c-5.695312-5.703125-8.96875-13.59375-8.96875-21.65625s3.273438-15.953125 8.96875-21.65625l15.03125-15.03125 180.6875 180.6875zm265.375-265.375-7.03125 7.03125-44.6875-44.6875h-16l-75.3125-75.3125v-16l-44.6875-44.6875 7.03125-7.03125c11.566406-11.5625 31.746094-11.5625 43.3125 0l137.375 137.375c5.695312 5.703125 8.96875 13.59375 8.96875 21.65625s-3.273438 15.953125-8.96875 21.65625zm0 0"/><path d="m232 351.433594-13.089844-13.089844-11.308594 11.3125 24.398438 24.398438 64.398438-64.398438-11.308594-11.3125zm0 0"/><path d="m183.597656 325.660156 11.3125-11.316406 15.996094 16-11.3125 11.3125zm0 0"/><path d="m312 208h16v16h-16zm0 0"/><path d="m344 208h16v16h-16zm0 0"/><path d="m224 104c0-39.703125-32.304688-72-72-72s-72 32.296875-72 72 32.304688 72 72 72 72-32.296875 72-72zm-128 0c0-30.871094 25.121094-56 56-56s56 25.128906 56 56-25.121094 56-56 56-56-25.128906-56-56zm0 0"/></svg>