<svg id="_x33_0" enable-background="new 0 0 64 64" height="512" viewBox="0 0 64 64" width="512" xmlns="http://www.w3.org/2000/svg"><path d="m14.25 48.25-5.01 5.01c-.79.79-1.87 1.24-3 1.24-1.17 0-2.23-.48-3-1.24-.76-.77-1.24-1.83-1.24-3 0-1.13.45-2.21 1.24-3l5.01-5.01 5.75 5.75z" fill="#969faa"/><path d="m18.16 44.34-3.91 3.91-.25-.25-5.75-5.75 3.76-3.76c1.44 2.5 3.58 4.54 6.15 5.85z" fill="#ccd1d9"/><path d="m58 2h-34c-2.21 0-4 1.79-4 4v52c0 2.21 1.79 4 4 4h34c2.21 0 4-1.79 4-4v-52c0-2.21-1.79-4-4-4z" fill="#aab2bd"/><g fill="#e6e9ed"><path d="m56 55v2c0 .55-.45 1-1 1h-2c-.55 0-1-.45-1-1v-2c0-.55.45-1 1-1h2c.55 0 1 .45 1 1z"/><path d="m48 55v2c0 .55-.45 1-1 1h-12c-.55 0-1-.45-1-1v-2c0-.55.45-1 1-1h12c.55 0 1 .45 1 1z"/><path d="m30 55v2c0 .55-.45 1-1 1h-2c-.55 0-1-.45-1-1v-2c0-.55.45-1 1-1h2c.55 0 1 .45 1 1z"/></g><path d="m57 6h-32c-.55 0-1 .45-1 1v9 33c0 .55.45 1 1 1h32c.55 0 1-.45 1-1v-42c0-.55-.45-1-1-1z" fill="#69d6f4"/><path d="m44 10h10v8h-10z" fill="#b4dd7f"/><path d="m44 30h10v8h-10z" fill="#b4dd7f"/><path d="m20 16.86c1.26-.45 2.61-.73 4-.82.33-.03.66-.04 1-.04 8.28 0 15 6.72 15 15s-6.72 15-15 15c-.34 0-.67-.01-1-.04-1.39-.09-2.74-.37-4-.82-.63-.22-1.25-.49-1.84-.8-2.57-1.31-4.71-3.35-6.15-5.85-1.28-2.2-2.01-4.76-2.01-7.49 0-6.53 4.18-12.09 10-14.14z" fill="#fcd770"/><path d="m25 20c6.08 0 11 4.92 11 11s-4.92 11-11 11-11-4.92-11-11 4.92-11 11-11z" fill="#e6e9ed"/><path d="m30 31-9 5v-10z" fill="#ff826e"/><path d="m25 43c6.617 0 12-5.383 12-12s-5.383-12-12-12-12 5.383-12 12 5.383 12 12 12zm0-22c5.514 0 10 4.486 10 10s-4.486 10-10 10-10-4.486-10-10 4.486-10 10-10z"/><path d="m58 1h-34c-2.757 0-5 2.243-5 5v10.178c-5.856 2.379-10 8.122-10 14.822 0 2.632.651 5.112 1.782 7.304l-8.246 8.246c-.991.991-1.536 2.307-1.536 3.708 0 2.89 2.352 5.242 5.242 5.242 1.4 0 2.717-.545 3.707-1.535l8.421-8.421c.209.096.416.191.63.278v12.178c0 2.757 2.243 5 5 5h34c2.757 0 5-2.243 5-5v-52c0-2.757-2.243-5-5-5zm-33 16c7.72 0 14 6.28 14 14s-6.28 14-14 14-14-6.28-14-14 6.28-14 14-14zm0 30c8.822 0 16-7.178 16-16s-7.178-16-16-16v-8h32v42h-32zm-16.465 5.551c-.612.612-1.427.949-2.293.949-1.788 0-3.242-1.454-3.242-3.242 0-.866.337-1.681.949-2.293l4.301-4.301 4.586 4.586zm5.715-5.715-4.586-4.586 2.174-2.174c1.241 1.795 2.844 3.315 4.696 4.476zm46.75 11.164c0 1.654-1.346 3-3 3h-34c-1.654 0-3-1.346-3-3v-11.527c.653.169 1.318.302 2 .388v2.139c0 1.103.897 2 2 2h32c1.103 0 2-.897 2-2v-42c0-1.103-.897-2-2-2h-32c-1.103 0-2 .897-2 2v8.139c-.682.086-1.347.219-2 .388v-9.527c0-1.654 1.346-3 3-3h34c1.654 0 3 1.346 3 3z"/><path d="m47 53h-12c-1.103 0-2 .897-2 2v2c0 1.103.897 2 2 2h12c1.103 0 2-.897 2-2v-2c0-1.103-.897-2-2-2zm-12 4v-2h12l.002 2z"/><path d="m29 53h-2c-1.103 0-2 .897-2 2v2c0 1.103.897 2 2 2h2c1.103 0 2-.897 2-2v-2c0-1.103-.897-2-2-2zm-2 4v-2h2l.002 2z"/><path d="m55 53h-2c-1.103 0-2 .897-2 2v2c0 1.103.897 2 2 2h2c1.103 0 2-.897 2-2v-2c0-1.103-.897-2-2-2zm-2 4v-2h2l.002 2z"/><path d="m20 24.301v13.398l12.06-6.699zm2 3.398 5.94 3.301-5.94 3.301z"/><path d="m43 19h12v-10h-12zm2-8h8v6h-8z"/><path d="m43 39h12v-10h-12zm2-8h8v6h-8z"/><path d="m43 21h2v2h-2z"/><path d="m47 21h8v2h-8z"/><path d="m43 25h12v2h-12z"/><path d="m43 41h2v2h-2z"/><path d="m47 41h8v2h-8z"/><path d="m43 45h12v2h-12z"/></svg>