<svg id="Layer_1" enable-background="new 0 0 512 512" height="512" viewBox="0 0 512 512" width="512" xmlns="http://www.w3.org/2000/svg"><g><path d="m264.033 512h-208.866c-30.48 0-55.167-24.653-55.167-55.167v-401.666c0-30.483 24.658-55.167 55.167-55.167h208.866c30.479 0 55.167 24.652 55.167 55.167v401.667c0 30.482-24.658 55.166-55.167 55.166z" fill="#414753"/><path d="m319.2 456.833v-401.666c0-30.515-24.688-55.167-55.167-55.167h-104.433v512h104.433c30.509 0 55.167-24.684 55.167-55.167z" fill="#1c1a27"/><path d="m289.199 55.167c0-13.899-11.267-25.167-25.167-25.167s-25.167 11.267-25.167 25.167c0 21.576-17.54 39.1-39.1 39.1h-80.333c-21.561 0-39.101-17.54-39.101-39.1.002-13.9-11.265-25.167-25.164-25.167s-25.167 11.267-25.167 25.167v401.667c0 13.899 11.267 25.166 25.167 25.166h208.867c13.899 0 25.167-11.267 25.167-25.167z" fill="#f6f9f9"/><path d="m289.2 456.833-.001-401.667c0-13.899-11.267-25.167-25.167-25.167s-25.167 11.267-25.167 25.167c0 21.576-17.54 39.1-39.1 39.1h-40.165v387.734h104.434c13.899 0 25.166-11.267 25.166-25.167z" fill="#eceae7"/><path d="m223.866 447.733h-128.533c-8.284 0-15-6.716-15-15s6.716-15 15-15h128.533c8.284 0 15 6.716 15 15s-6.716 15-15 15z" fill="#eceae7"/><path d="m238.866 432.733c0-8.284-6.716-15-15-15h-64.266v30h64.266c8.284 0 15-6.715 15-15z" fill="#dddddf"/><g fill="#00ddc1"><path d="m440.767 142.467c-8.284 0-15-6.716-15-15 0-22.736-18.497-41.233-41.233-41.233-8.284 0-15-6.716-15-15s6.716-15 15-15c39.278 0 71.233 31.955 71.233 71.233 0 8.284-6.716 15-15 15z"/><path d="m497 142.467c-8.284 0-15-6.716-15-15 0-53.743-43.724-97.467-97.467-97.467-8.284 0-15-6.716-15-15s6.716-15 15-15c70.286 0 127.467 57.182 127.467 127.467 0 8.284-6.716 15-15 15z"/><circle clip-rule="evenodd" cx="384.533" cy="127.467" fill-rule="evenodd" r="15"/></g><path d="m175.669 359.366c-.147 0-.295-.002-.443-.007-6.292-.185-11.799-4.278-13.79-10.25l-21.728-65.185-65.185-21.728c-5.972-1.99-10.065-7.498-10.25-13.79s3.578-12.03 9.423-14.367l160.667-64.267c5.572-2.229 11.935-.923 16.177 3.32 4.243 4.243 5.549 10.606 3.321 16.178l-64.267 160.666c-2.283 5.708-7.808 9.43-13.925 9.43z" fill="#f1dd00"/><path d="m234.362 169.773-74.762 29.905v143.923l1.836 5.508c1.991 5.972 7.498 10.065 13.79 10.25.148.005.296.007.443.007 6.117 0 11.642-3.723 13.924-9.429l64.267-160.666c2.229-5.571.922-11.935-3.321-16.178-4.242-4.242-10.605-5.548-16.177-3.32z" fill="#ecbe00"/></g></svg>