<svg id="Layer_2" height="512" viewBox="0 0 64 64" width="512" xmlns="http://www.w3.org/2000/svg" data-name="Layer 2"><path d="m18 15h4v4h-4z" fill="#268c56"/><path d="m40 34h4v4h-4z" fill="#268c56"/><path d="m46 34h4v4h-4z" fill="#116035"/><path d="m28.975 57.696-1.535 1.364 1.536-1.363z" fill="#33b575"/><path d="m54.2 20.27-4.62 3.46-1.94 1.45 2.08 3.46a2.017 2.017 0 0 1 .1 1.85l-5 11a2.008 2.008 0 0 1 -.99 1l-8.74 3.97 1.51 2.01a2 2 0 0 1 -.27 2.69l-6.22 5.53-1.134 1.01 6.024 4.3 9-8-3-4 11-5 5-11-3-5 8-6-1-6-6.566-1.876.536 3.216a1.987 1.987 0 0 1 -.77 1.93z" fill="#116035"/><path d="m40 6-5-2-3 4h-8l-1.087-6-14.913 6 1 9h-4l-3 6 8 5 1.759.406-.749-6.686a2.012 2.012 0 0 1 1.24-2.08l11.12-4.47 3.8-1.53a2.028 2.028 0 0 1 1.06-.11 1.73 1.73 0 0 1 .65.22 1.99 1.99 0 0 1 1 1.39l.79 4.36h5.33l2-2.67.4-.53a2.009 2.009 0 0 1 2.34-.66l5 2a2.01 2.01 0 0 1 1.26 1.86v3.49l2.578.739 4.622-3.459a1.987 1.987 0 0 0 .77-1.93l-.536-3.216-14.434-4.124z" fill="#48d88d"/><path d="m54.2 20.27-4.622 3.459.002.001z" fill="#48d88d"/><g fill="#33b575"><path d="m36.6 48.47-1.51-2.01 8.74-3.97a2.008 2.008 0 0 0 .99-1l5-11a2.017 2.017 0 0 0 -.1-1.85l-2.08-3.46 1.938-1.451-2.578-.739v-3.49a2.01 2.01 0 0 0 -1.26-1.86l-5-2a2.009 2.009 0 0 0 -2.34.66l-.4.53-2 2.67h-5.33l-.79-4.36a1.99 1.99 0 0 0 -1-1.39 1.73 1.73 0 0 0 -.65-.22 2.028 2.028 0 0 0 -1.06.11l-3.8 1.53-11.12 4.47a2.012 2.012 0 0 0 -1.24 2.08l.749 6.686 11.241 2.594 1 5 4 2-1 6 5 7-4 6 .975.7 7.355-6.54a2 2 0 0 0 .27-2.69z"/><path d="m36.33 51.16-7.355 6.536.001.001 1.134-1.007z"/><path d="m49.58 23.73-.002-.001-1.938 1.451z"/></g><path d="m55.37 8c0 .042-.008.083-.008.125h2.638v-6.125h-5.34a7.972 7.972 0 0 1 2.71 6z" fill="#f8dc32"/><path d="m48 8.125h7.362c0-.042.008-.083.008-.125a7.972 7.972 0 0 0 -2.71-6h-4.66z" fill="#d6ae03"/><path d="m20 20a1 1 0 0 1 -1-1v-4a1 1 0 0 1 2 0v4a1 1 0 0 1 -1 1z" fill="#268c56"/><path d="m42 39a1 1 0 0 1 -1-1v-4a1 1 0 0 1 2 0v4a1 1 0 0 1 -1 1z" fill="#268c56"/><path d="m48 39a1 1 0 0 1 -1-1v-4a1 1 0 0 1 2 0v4a1 1 0 0 1 -1 1z" fill="#116035"/><path d="m48 20.5a1 1 0 0 1 -1-1v-17.5a1 1 0 0 1 2 0v17.5a1 1 0 0 1 -1 1z" fill="#1799da"/><path d="m32 23h-1a1 1 0 0 1 0-2h1a1 1 0 0 1 0 2z" fill="#268c56"/><path d="m36 23h-1a1 1 0 0 1 0-2h1a1 1 0 0 1 0 2z" fill="#268c56"/></svg>