<svg height="512" viewBox="0 0 58 60" width="512" xmlns="http://www.w3.org/2000/svg"><g id="036---Locked" fill="none"><g id="Icons" transform="translate(1 11)"><path id="Shape" d="m56 28c-.0612097 1.6310332-.2822682 3.2521289-.66 4.84-.47 2-.34 3.945-.34 12.16 0 1.6568542-1.3431458 3-3 3-.820063.0467646-1.6425145.0300481-2.46-.05-.01.01-.01.01-.02 0-.0512428-.002247-.1018347-.0123654-.15-.03-.1016199-.0157462-.2019052-.0391461-.3-.07-1.2361311-.3990729-2.0728302-1.5510499-2.07-2.85v-3c-.308.1-1.665.4-2.12.49-5.8957661 1.0644582-11.8792839 1.566712-17.87 1.5-6.0593733.0217891-12.1015564-.6458369-18.01-1.99v3c-.0049422 1.6548028-1.3451972 2.9950578-3 3-.82647225.0501497-1.65557496.0367771-2.48-.04-1.4536453-.2326493-2.52226804-1.4878569-2.52-2.96 0-8.9.107-10.262-.34-12.16-.402019-1.6779864-.61997235-3.3947881-.65-5.12.24-2.97 4.02-6.75 4.99-7.72 1-1 6-12 7-13 .72-.72 5.67-.93 8.32-.97v.01c.1 0 1.623-.04 2.35-.04v-2c-.1140197-2.0813159 1.4698758-3.86598681 3.55-4h3.56c2.0801242.13401319 3.6640197 1.9186841 3.55 4v2c.049 0 .377.01.67.01v-.01s9 0 10 1 6 12 7 13 5 5 5 8z" fill="#549414"/><path id="Shape" d="m56 28c-.0612097 1.6310332-.2822682 3.2521289-.66 4.84-.47 2-.34 3.945-.34 12.16 0 1.6568542-1.3431458 3-3 3-.820063.0467646-1.6425145.0300481-2.46-.05-.01.01-.01.01-.02 0-.0512428-.002247-.1018347-.0123654-.15-.03-.1016199-.0157462-.2019052-.0391461-.3-.07-1.2361311-.3990729-2.0728302-1.5510499-2.07-2.85v-3c-.308.1-1.665.4-2.12.49-5.8957661 1.0644582-11.8792839 1.566712-17.87 1.5-6.0593733.0217891-12.1015564-.6458369-18.01-1.99v3c-.0049422 1.6548028-1.3451972 2.9950578-3 3-.82647225.0501497-1.65557496.0367771-2.48-.04-1.4536453-.2326493-2.52226804-1.4878569-2.52-2.96 0-8.9.107-10.262-.34-12.16-.402019-1.6779864-.61997235-3.3947881-.65-5.12.24-2.97 4.02-6.75 4.99-7.72 1-1 6-12 7-13 .72-.72 5.67-.93 8.32-.97v.01c.1 0 1.623-.04 2.35-.04v-2c-.1140197-2.0813159 1.4698758-3.86598681 3.55-4h3.56c2.0801242.13401319 3.6640197 1.9186841 3.55 4v2c.049 0 .377.01.67.01v-.01s9 0 10 1 6 12 7 13 5 5 5 8z" fill="#009688"/><path id="Shape" d="m56 28c-.1261553 1.9585024-.40365 3.9043089-.83 5.82-.226 1.7-.17.9-.17 11.18 0 1.6568542-1.3431458 3-3 3-.820063.0467646-1.6425145.0300481-2.46-.05 1.4269289-.2565861 2.4639688-1.5001908 2.46-2.95 0-11.173-.045-9.492.24-11.63 0-.018.44-2.286.44-2.31.2011652-1.0078944.3082919-2.0322931.32-3.06 0-3-4-7-5-8s-6-12-7-13-10-1-10-1v.01c-.293 0-.621-.01-.67-.01v-2c.1140197-2.0813159-1.4698758-3.86598681-3.55-4h3c2.0801242.13401319 3.6640197 1.9186841 3.55 4v2c.049 0 .377.01.67.01v-.01s9 0 10 1 6 12 7 13 5 5 5 8z" fill="#00695c"/><path id="Shape" d="m9 42v3c0 1.6568542-1.34314575 3-3 3-.83319844.0562048-1.66971514.0394745-2.5-.05-1.44436324-.2365682-2.50353915-1.4863958-2.5-2.95l-.00000884-6.19c1.86000884 1.758 5.48700884 2.723 8.00000884 3.19z" fill="#607d8b"/><path id="Shape" d="m55 38.81v6.19c0 1.6568542-1.3431458 3-3 3-.8331984.0562048-1.6697151.0394745-2.5-.05-1.4443632-.2365682-2.5035392-1.4863958-2.5-2.95v-3c2.553-.486 6.1-1.409 8-3.19z" fill="#37474f"/><path id="Shape" d="m52.0000088 40.6-.0000088 4.4c.0035392 1.4636042-1.0556368 2.7134318-2.5 2.95-1.4443632-.2365682-2.5035392-1.4863958-2.5-2.95v-3c1.7091925-.2987196 3.3842037-.7677228 5.0000088-1.4z" fill="#607d8b"/><circle id="Oval" cx="28" cy="6" fill="#00bcd4" r="2"/><path id="Shape" d="m14.38 32.44c-.1714919.3451393-.5246111.5624434-.91.56-.91-.01-1.74-.06-2.49-.14-7.6-.76-7.29-4.4-6.73-6.05.17345216-.4716287.6699647-.7412863 1.16-.63 2.67931746.4961432 5.3954709.7670896 8.12.81.3676353.0140902.6995849.2239434.87.55.7925646 1.5389204.7851006 3.3676007-.02 4.9z" fill="#cfd8dc"/><path id="Shape" d="m11.38 32.44c-.0866776.1780062-.2264311.3247474-.4.42-7.6-.76-7.29-4.4-6.73-6.05.03452578-.1080479.09258671-.207093.17-.29 5.736.8 6.449.021 6.98 1.02.7925646 1.5389204.7851006 3.3676007-.02 4.9z" fill="#f5f5f5"/><path id="Shape" d="m42.53 33c-.3843986-.0010675-.7358202-.217327-.91-.56-.8051006-1.5323993-.8125646-3.3610796-.02-4.9.1704151-.3260566.5023647-.5359098.87-.55 2.7246122-.0414652 5.4408865-.3124236 8.12-.81.4900353-.1112863.9865478.1583713 1.16.63.61 1.81.93 6.03-9.22 6.19z" fill="#cfd8dc"/><path id="Shape" d="m42.02 32.86c-.1735689-.0952526-.3133224-.2419938-.4-.42-.8051006-1.5323993-.8125646-3.3610796-.02-4.9.532-1 1.228-.217 6.98-1.02.0774133.082907.1354742.1819521.17.29.56 1.65.87 5.29-6.73 6.05z" fill="#f5f5f5"/><path id="Shape" d="m36.1 33.066c-5.3504755 1.0129899-10.8435245 1.0129899-16.194 0-.5181638-.0927773-.8979697-.5396571-.906-1.066v-11.174c.0074796-.5244626.3842168-.9706868.9-1.066 5.3504755-1.0129899 10.8435245-1.0129899 16.194 0 .5157832.0953132.8925204.5415374.9 1.066v11.174c-.0069165.5225943-.3805978.9681695-.894 1.066z" fill="#fec108"/><path id="Shape" d="m33.841 33.066c-4.6309147 1.0130141-9.4260853 1.0130141-14.057 0-.4769396-.1304964-.8015305-.5718408-.784-1.066v-11.174c-.0175305-.4941592.3070604-.9355036.784-1.066 4.6309147-1.0130141 9.4260853-1.0130141 14.057 0 .4769396.1304964.8015305.5718408.784 1.066v11.174c.0175305.4941592-.3070604.9355036-.784 1.066z" fill="#ffdc00"/></g><g id="Layer_2" fill="#000"><path id="Shape" d="m45.707 17.293c-.987-.987-5.621-1.254-9.707-1.293v-1c-.0033061-2.7600532-2.2399468-4.9966939-5-5h-4c-2.7600532.0033061-4.9966939 2.2399468-5 5v1c-4.086.035-8.72.3-9.707 1.289-1.216 1.216-6.031 11.94-7 13-3.512 3.516-5.293 6.445-5.293 8.711 0 3.016 1 5.218 1 8v9c0 2.209139 1.790861 4 4 4h2c2.209139 0 4-1.790861 4-4v-1.723c10.177 2.293 25.784 2.3 36 0v1.723c0 2.209139 1.790861 4 4 4h2c2.209139 0 4-1.790861 4-4v-9c0-2.746 1-4.971 1-8 0-2.266-1.781-5.195-5.288-8.7-.993-1.087-5.794-11.8-7.005-13.007zm9.813 25.507c-.686 3.423-.52 2.982-.52 13.2 0 1.1045695-.8954305 2-2 2h-2c-1.1045695 0-2-.8954305-2-2v-3c-.0002288-.3135304-.1474915-.6088038-.3977962-.797613-.2503048-.1888092-.5746722-.2492944-.8762038-.163387-.07.019-7.001 1.961-18.726 1.961-11.694 0-18.657-1.942-18.726-1.962-.30170069-.0859555-.62625207-.025352-.8766027.1636883-.25035064.1890403-.3974821.4846054-.3973973.7983117v3c0 1.1045695-.8954305 2-2 2h-2c-1.1045695 0-2-.8954305-2-2 0-10.489.137-9.919-.52-13.2-.29119528-1.2466205-.45205917-2.5201263-.48-3.8 0-.966.611-3.2 4.707-7.293 1.158-1.158 6.094-11.991 6.944-12.953.749-.465 5.439-.754 9.349-.754.5522847 0 1-.4477153 1-1v-2c0-1.6568542 1.3431458-3 3-3h4c1.6568542 0 3 1.3431458 3 3v2c0 .5522847.4477153 1 1 1 3.91 0 8.6.289 9.288.7.993 1.085 5.794 11.794 7.005 13.005 4.096 4.095 4.707 6.329 4.707 7.295-.0279408 1.2798737-.1888047 2.5533795-.48 3.8z"/><path id="Shape" d="m42.631 8.262c.3661187.38892586.9732551.42146232 1.3788427.07389222s.4664214-.95252669.1381573-1.37389222c-3.794378-4.41670903-9.3272324-6.95769251-15.15-6.95769251s-11.355622 2.54098348-15.15 6.95769251c-.3282641.42136553-.2674303 1.02632212.1381573 1.37389222s1.012724.31503364 1.3788427-.07389222c3.4140627-3.97509147 8.3930404-6.26210799 13.633-6.26210799s10.2189373 2.28701652 13.633 6.26210799z"/><path id="Shape" d="m17.384 10.53c-.225256.2774167-.285401.653933-.157779.9877187.1276219.3337858.4236221.574131.7765.6305001.3528779.056369.709023-.0798021.934279-.3572188 2.4616972-3.03088574 6.158359-4.79079212 10.063-4.79079212s7.6013028 1.75990638 10.063 4.79079212c.225256.2774167.5814011.4135877.934279.3572187s.6488781-.2967142.7765-.6305c.127622-.3337857.067477-.710302-.157779-.9877187-2.8416661-3.49853663-7.108803-5.52997117-11.616-5.52997117s-8.7743339 2.03143454-11.616 5.52997117z"/><path id="Shape" d="m29 20c1.6568542 0 3-1.3431458 3-3s-1.3431458-3-3-3-3 1.3431458-3 3 1.3431458 3 3 3zm0-4c.5522847 0 1 .4477153 1 1s-.4477153 1-1 1-1-.4477153-1-1 .4477153-1 1-1z"/><path id="Shape" d="m14.549 36.993c-2.6658643-.0414391-5.32340198-.3090663-7.944-.8-.98450498-.2067776-1.96938566.3498941-2.3 1.3-.55304388 1.4404389-.36826627 3.060136.495 4.339 1.835 2.6 6.493 3.168 9.682 3.168.7623685.0017948 1.4598617-.4287135 1.8-1.111.9557761-1.8219263.9557761-3.9970737 0-5.819-.3413795-.6450631-1.003461-1.056524-1.733-1.077zm-.067 6c-4.128-.065-9.666-.964-8.276-4.841 2.74783895.4834512 5.526446.7718382 8.315.863.642894 1.2539741.6283131 2.7438485-.039 3.985z"/><path id="Shape" d="m43.451 36.993c-.7280516.0200388-1.389322.429324-1.732 1.072-.9557761 1.8219263-.9557761 3.9970737 0 5.819.3464275.6913141 1.0567893 1.1245184 1.83 1.116 4.977-.079 8.224-1.143 9.651-3.164.8636081-1.2795803 1.0476759-2.9003476.493-4.341-.3280568-.9522376-1.3149878-1.5100681-2.3-1.3-2.6209744.4833148-5.2772642.7502147-7.942.798zm8.349 1.137c1.335 3.947-4.135 4.8-8.283 4.873-.6657336-1.2527341-.6717182-2.7529946-.016-4.011 2.7860216-.0473662 5.5627164-.3357757 8.299-.862z"/><path id="Shape" d="m37.283 29.777c-.425-.08-.855-.144-1.283-.212v-.565c0-3.8659932-3.1340068-7-7-7s-7 3.1340068-7 7v.565c-.428.068-.858.132-1.283.212-.9892928.1834765-1.7094348 1.0428654-1.717 2.049v11.174c.0080421 1.0057569.7280741 1.8645954 1.717 2.048 5.4738759 1.031002 11.0921241 1.031002 16.566 0 .9889259-.1834046 1.7089579-1.0422431 1.717-2.048v-11.174c-.0075652-1.0061346-.7277072-1.8655235-1.717-2.049zm-4.747-4.307c1.0143139 1.0078746 1.5474125 2.4025246 1.464 3.83-3.3229544-.3720031-6.6770456-.3720031-10 0-.1187039-2.0731313 1.0545435-4.0043891 2.9491022-4.8544547s4.1172058-.4425046 5.5868978 1.0244547zm4.464 17.53c-.0075792.0449441-.0445905.0790767-.09.083-5.2274292.9840073-10.5925708.9840073-15.82 0-.14-.027-.09.651-.09-11.257.007167-.0453367.0442773-.079973.09-.084 5.2274292-.9840073 10.5925708-.9840073 15.82 0 .14.027.09-.65.09 11.258z"/><path id="Shape" d="m32.231 33.36-4.424 5.309-2.252-1.5c-.4595009-.306518-1.0804819-.1825009-1.387.277-.306518.4595009-.1825009 1.080482.277 1.387 3.255 2.167 3.148 2.167 3.555 2.167.2974322.000483.5796435-.1314599.77-.36l5-6c.3534622-.424707.295707-1.0555377-.129-1.409-.424707-.3534622-1.0555378-.295707-1.409.129z"/></g></g></svg>