<svg height="512" viewBox="0 0 512 512" width="512" xmlns="http://www.w3.org/2000/svg"><g id="flat"><path d="m488 448-8 16h-168v-40l32-8 16-32h96l16 32 16 16z" fill="#fbb540"/><circle cx="360" cy="464" fill="#dbdbdb" r="16"/><circle cx="448" cy="464" fill="#dbdbdb" r="16"/><path d="m360 488a24 24 0 1 1 24-24 24.028 24.028 0 0 1 -24 24zm0-32a8 8 0 1 0 8 8 8.009 8.009 0 0 0 -8-8z" fill="#787d82"/><path d="m448 488a24 24 0 1 1 24-24 24.028 24.028 0 0 1 -24 24zm0-32a8 8 0 1 0 8 8 8.009 8.009 0 0 0 -8-8z" fill="#787d82"/><path d="m344 416h128l-16-32h-96z" fill="#eaeae8"/><path d="m408 384h16v32h-16z" fill="#c3c3c3"/><path d="m432 384h-48l8-24h32z" fill="#fbb540"/><path d="m457.188 325.317a56.959 56.959 0 0 0 -80.454-4.736l-10.634-11.955a72.959 72.959 0 0 1 103.043 6.057z" fill="#85bc94"/><path d="m438.506 341.317a31.975 31.975 0 0 0 -45.167-2.661l-10.633-11.956a47.974 47.974 0 0 1 67.755 3.982z" fill="#85bc94"/><path d="m474.056 306.486a79.991 79.991 0 0 0 -112.977-5.949l-10.707-11.889a95.989 95.989 0 0 1 135.572 7.131z" fill="#85bc94"/><path d="m312 432h-254a2 2 0 0 1 -2-2v-196a2 2 0 0 1 2-2h358a24 24 0 0 0 24-24v-104a24 24 0 0 0 -24-24h-320v32h310a2 2 0 0 1 2 2v84a2 2 0 0 1 -2 2h-358a24 24 0 0 0 -24 24v216a24 24 0 0 0 24 24h264z" fill="#aedee2"/><path d="m157.8 349.7c8.433-11.946 9.685-27.76 2.573-40.536a36.57 36.57 0 0 0 -30.973-19.044q-.7-.024-1.4-.024t-1.4.024a36.57 36.57 0 0 0 -30.969 19.043c-7.112 12.776-5.86 28.59 2.573 40.536l29.796 42.201z" fill="#f55648"/><circle cx="128" cy="330.819" fill="#ebebeb" r="13"/><path d="m285.8 125.8c8.433-11.946 9.685-27.76 2.573-40.536a36.57 36.57 0 0 0 -30.973-19.048q-.7-.024-1.4-.024t-1.4.024a36.57 36.57 0 0 0 -30.969 19.043c-7.112 12.776-5.86 28.59 2.573 40.536l29.796 42.205z" fill="#f55648"/><circle cx="256" cy="106.915" fill="#ebebeb" r="13"/><g fill="#428dc5"><circle cx="64" cy="96" r="40"/><circle cx="256" cy="216" r="24"/><circle cx="128" cy="448" r="24"/><circle cx="424" cy="152" r="24"/></g></g></svg>