<svg height="58" viewBox="0 0 60 58" width="60" xmlns="http://www.w3.org/2000/svg"><g id="Page-1" fill="none" fill-rule="evenodd"><g id="006---GPS-Tracking" fill-rule="nonzero"><path id="Shape" d="m59 26v28c0 1.6568542-1.3431458 3-3 3h-5c1.6568542 0 3-1.3431458 3-3v-28c0-1.6568542-1.3431458-3-3-3h5c1.6568542 0 3 1.3431458 3 3z" fill="#3f51b5"/><path id="Shape" d="m56 23h-3c1.6568542 0 3 1.3431458 3 3v28c0 1.6568542-1.3431458 3-3 3h3c1.6568542 0 3-1.3431458 3-3v-28c0-1.6568542-1.3431458-3-3-3z" fill="#283593"/><path id="Shape" d="m54 26v28c0 1.6568542-1.3431458 3-3 3h-47c-1.65685425 0-3-1.3431458-3-3v-28c0-1.6568542 1.34314575-3 3-3h6.5c.68.87 1.3 1.61 1.74 2.13.1899882.2221664.4676758.3500769.76.3500769s.5700118-.1279105.76-.3500769c.44-.52 1.06-1.26 1.74-2.13h26.8c.36.44.68.82.94 1.13.1899882.2221664.4676758.3500769.76.3500769s.5700118-.1279105.76-.3500769c.26-.31.58-.69.94-1.13h5.3c1.6568542 0 3 1.3431458 3 3z" fill="#02a9f4"/><path id="Shape" d="m51 23h-3c1.6568542 0 3 1.3431458 3 3v28c0 1.6568542-1.3431458 3-3 3h3c1.6568542 0 3-1.3431458 3-3v-28c0-1.6568542-1.3431458-3-3-3z" fill="#0377bc"/><path id="Shape" d="m1 30 3.052 2.861c.60498515.5672653.94815313 1.3596648.948 2.189v9.9c.00015313.8293352-.34301485 1.6217347-.948 2.189l-3.052 2.861z" fill="#3f51b5"/><g fill="#f5f5f5"><path id="Shape" d="m36 44h-1c-.5522847 0-1-.4477153-1-1s.4477153-1 1-1h1c.5522847 0 1 .4477153 1 1s-.4477153 1-1 1z"/><path id="Shape" d="m48 44h-8c-.5522847 0-1-.4477153-1-1s.4477153-1 1-1h8c.5522847 0 1 .4477153 1 1s-.4477153 1-1 1z"/><path id="Shape" d="m33 48h-2c-.5522847 0-1-.4477153-1-1s.4477153-1 1-1h2c.5522847 0 1 .4477153 1 1s-.4477153 1-1 1z"/><path id="Shape" d="m48 48h-11c-.5522847 0-1-.4477153-1-1s.4477153-1 1-1h11c.5522847 0 1 .4477153 1 1s-.4477153 1-1 1z"/><path id="Shape" d="m48 52h-14c-.5522847 0-1-.4477153-1-1s.4477153-1 1-1h14c.5522847 0 1 .4477153 1 1s-.4477153 1-1 1z"/></g><path id="Shape" d="m53 10c0 3.59-4.7 9.81-7.3 13-.36.44-.68.82-.94 1.13-.1899882.2221664-.4676758.3500769-.76.3500769s-.5700118-.1279105-.76-.3500769c-.26-.31-.58-.69-.94-1.13-2.6-3.19-7.3-9.41-7.3-13 .0000001-4.97056267 4.0294373-8.99999981 9-8.99999981s8.9999999 4.02943714 9 8.99999981z" fill="#f44335"/><path id="Shape" d="m44 1c-.5028835.00322243-1.0046224.04837892-1.5.135 4.3269061.7313783 7.495553 4.47671893 7.5 8.865 0 3.59-4.7 9.81-7.3 13-.071.087-.132.16-.2.242.276.334.531.639.74.888.1899882.2221664.4676758.3500769.76.3500769s.5700118-.1279105.76-.3500769c.26-.31.58-.69.94-1.13 2.6-3.19 7.3-9.41 7.3-13 0-2.38694841-.9482116-4.67613362-2.636039-6.36396103s-3.9770126-2.63603897-6.363961-2.63603897z" fill="#c81e1e"/><circle id="Oval" cx="44" cy="10" fill="#f5f5f5" r="4"/><path id="Shape" d="m44 6c-.5146843.00216946-1.0240724.10404706-1.5.3 1.5110147.60851068 2.5007405 2.07405844 2.5007405 3.703 0 1.6289416-.9897258 3.0944893-2.5007405 3.703 1.496414.6077595 3.211506.2559465 4.3478056-.8918556s1.4708211-2.86635044.8480212-4.35656747-2.0807039-2.45966481-3.6958268-2.45757693z" fill="#cfd8dc"/><path id="Shape" d="m22 11c0 3.24-3.83 8.64-6.5 12-.68.87-1.3 1.61-1.74 2.13-.1899882.2221664-.4676758.3500769-.76.3500769s-.5700118-.1279105-.76-.3500769c-.44-.52-1.06-1.26-1.74-2.13-2.67-3.36-6.5-8.76-6.5-12 .00000007-4.9705627 4.0294373-8.99999987 9-8.99999987s8.9999999 4.02943717 9 8.99999987z" fill="#f44335"/><path id="Shape" d="m13 2c-.5028835.00322243-1.0046224.04837892-1.5.135 4.3269061.7313783 7.495553 4.47671893 7.5 8.865 0 3.24-3.83 8.64-6.5 12-.356.456-.694.873-1 1.244.278.338.531.638.74.886.1899882.2221664.4676758.3500769.76.3500769s.5700118-.1279105.76-.3500769c.44-.52 1.06-1.26 1.74-2.13 2.67-3.36 6.5-8.76 6.5-12 0-4.97056275-4.0294373-9-9-9z" fill="#c81e1e"/><circle id="Oval" cx="13" cy="11" fill="#f5f5f5" r="4"/><path id="Shape" d="m13 7c-.5146843.00216946-1.0240724.10404706-1.5.3 1.5110147.60851068 2.5007405 2.07405844 2.5007405 3.703 0 1.6289416-.9897258 3.0944893-2.5007405 3.703 1.496414.6077595 3.211506.2559465 4.3478056-.8918556s1.4708211-2.8663504.8480212-4.35656747c-.6227999-1.49021703-2.0807039-2.45966481-3.6958268-2.45757693z" fill="#cfd8dc"/><circle id="Oval" cx="13" cy="32" fill="#e91e63" r="3"/><circle id="Oval" cx="21" cy="46" fill="#e91e63" r="3"/><circle id="Oval" cx="32" cy="34" fill="#e91e63" r="3"/><circle id="Oval" cx="44" cy="31" fill="#e91e63" r="3"/><path id="Shape" d="m56 22h-8.225c2.771-3.568 6.225-8.681 6.225-12 0-5.5228475-4.4771525-10-10-10s-10 4.4771525-10 10c0 3.32 3.455 8.432 6.225 12h-22.687c2.602-3.476 5.462-7.981 5.462-11 0-5.5228475-4.4771525-10-10-10s-10 4.4771525-10 10c0 3.02 2.86 7.525 5.462 11h-4.462c-2.209139 0-4 1.790861-4 4v28c0 2.209139 1.790861 4 4 4h52c2.209139 0 4-1.790861 4-4v-28c0-2.209139-1.790861-4-4-4zm-12-20c4.4162219.00495988 7.9950401 3.58377808 8 8 0 3.009-4.135 8.936-7.995 13.479-3.87-4.543-8.005-10.47-8.005-13.479.0049599-4.41622192 3.5837781-7.99504012 8-8zm-31 1c4.4162219.00495988 7.9950401 3.58377808 8 8 0 2.545-2.959 7.176-6.207 11.293-.592.751-1.193 1.486-1.788 2.186-3.87-4.543-8.005-10.47-8.005-13.479.00495988-4.41622192 3.58377808-7.99504012 8-8zm-11 29.308 1.368 1.282c.40269492.378896.63133176.907076.632 1.46v9.9c.00000995.5527743-.22876112 1.0809024-.632 1.459l-1.368 1.282zm0 21.692v-3.567l2.735-2.564c.80580401-.7571716 1.26348524-1.8132755 1.265-2.919v-9.9c-.00151476-1.1057245-.45919599-2.1618284-1.265-2.919l-2.735-2.564v-3.567c0-1.1045695.8954305-2 2-2h6.015c.549.684 1.055 1.292 1.466 1.776.3786714.4458141.9340708.7027721 1.519.7027721s1.1403286-.256958 1.519-.7027721c.411-.483.917-1.092 1.466-1.776h25.845c.233.28.455.545.651.776.3786714.4458141.9340708.7027721 1.519.7027721s1.1403286-.256958 1.519-.7027721c.2-.231.418-.5.651-.776h4.83c1.1045695 0 2 .8954305 2 2v28c0 1.1045695-.8954305 2-2 2h-47c-1.1045695 0-2-.8954305-2-2zm56 0c0 1.1045695-.8954305 2-2 2h-1.556c.3599241-.6053465.5518554-1.2957468.556-2v-28c-.0041446-.7042532-.1960759-1.3946535-.556-2h1.556c1.1045695 0 2 .8954305 2 2z" fill="#000"/><path id="Shape" d="m44 27c-2.1974761-.0000618-3.9835189 1.7725857-4 3.97l-4.508 1.124c-.6953727-1.291611-2.0436842-2.0972066-3.5105864-2.097522-1.4669022-.0003153-2.81556.8047005-3.5114879 2.0960124-.695928 1.2913119-.6267668 2.8604343.1800743 4.0855096l-5.79 6.3c-.885935-.4991539-1.9367946-.6164776-2.911-.325l-4.163-7.3c1.5540526-1.4595799 1.7727785-3.8500488.5094142-5.56742s-3.610552-2.2202554-5.4666177-1.1712211c-1.85606578 1.0490343-2.63589786 3.3192864-1.8162348 5.2874341.81966307 1.9681478 2.9804282 3.0137464 5.0324383 2.435207l4.163 7.3c-1.5131068 1.4701283-1.6243152 3.8626732-.2541045 5.4668217 1.3702106 1.6041484 3.7507226 1.868348 5.439327.6036802s2.1047105-3.6233739.9507775-5.3895019l5.79-6.3c.5727242.3121144 1.2137655.4776995 1.866.482 2.1974761.0000618 3.9835189-1.7725857 4-3.97l4.508-1.124c.9352155 1.7117274 2.9704656 2.4969781 4.8130325 1.8569889 1.8425669-.6399891 2.9528432-2.5177931 2.6256212-4.4406984-.3272219-1.9229053-1.9961131-3.3277767-3.9466537-3.3222905zm-33 5c0-1.1045695.8954305-2 2-2s2 .8954305 2 2-.8954305 2-2 2-2-.8954305-2-2zm10 16c-1.1045695 0-2-.8954305-2-2s.8954305-2 2-2 2 .8954305 2 2-.8954305 2-2 2zm11-12c-1.1045695 0-2-.8954305-2-2s.8954305-2 2-2 2 .8954305 2 2-.8954305 2-2 2zm12-3c-1.1045695 0-2-.8954305-2-2s.8954305-2 2-2 2 .8954305 2 2-.8954305 2-2 2z" fill="#000"/><path id="Shape" d="m49 10c0-2.76142375-2.2385763-5-5-5s-5 2.23857625-5 5c0 2.7614237 2.2385763 5 5 5 2.7600532-.0033061 4.9966939-2.2399468 5-5zm-5 3c-1.6568542 0-3-1.3431458-3-3 0-1.65685425 1.3431458-3 3-3s3 1.34314575 3 3c0 .7956495-.3160705 1.5587112-.8786797 2.1213203-.5626091.5626092-1.3256708.8786797-2.1213203.8786797z" fill="#000"/><path id="Shape" d="m18 11c0-2.76142375-2.2385763-5-5-5s-5 2.23857625-5 5c0 2.7614237 2.2385763 5 5 5 2.7600532-.0033061 4.9966939-2.2399468 5-5zm-5 3c-1.6568542 0-3-1.3431458-3-3 0-1.65685425 1.3431458-3 3-3s3 1.34314575 3 3c0 .7956495-.3160705 1.5587112-.8786797 2.1213203-.5626091.5626092-1.3256708.8786797-2.1213203.8786797z" fill="#000"/></g></g></svg>