<svg xmlns="http://www.w3.org/2000/svg" height="512pt" version="1.1" viewBox="0 -41 512.00002 512" width="512pt">
<g id="surface1">
<path d="M 504.394531 38.335938 L 504.394531 390.84375 C 504.394531 407.816406 490.636719 421.574219 473.664062 421.574219 L 38.324219 421.574219 C 21.363281 421.574219 7.605469 407.816406 7.605469 390.84375 L 7.605469 38.335938 C 7.605469 21.363281 21.363281 7.605469 38.324219 7.605469 L 473.664062 7.605469 C 490.636719 7.605469 504.394531 21.363281 504.394531 38.335938 Z M 504.394531 38.335938 " style=" stroke:none;fill-rule:nonzero;fill:rgb(90.196078%,90.196078%,90.196078%);fill-opacity:1;" />
<path d="M 504.394531 38.335938 L 504.394531 90.742188 L 7.605469 90.742188 L 7.605469 38.335938 C 7.605469 21.363281 21.363281 7.605469 38.324219 7.605469 L 473.664062 7.605469 C 490.636719 7.605469 504.394531 21.363281 504.394531 38.335938 Z M 504.394531 38.335938 " style=" stroke:none;fill-rule:nonzero;fill:rgb(80%,80%,80%);fill-opacity:1;" />
<path d="M 79.589844 49.171875 C 79.589844 59.8125 70.964844 68.4375 60.324219 68.4375 C 49.6875 68.4375 41.0625 59.8125 41.0625 49.171875 C 41.0625 38.535156 49.6875 29.910156 60.324219 29.910156 C 70.964844 29.910156 79.589844 38.535156 79.589844 49.171875 Z M 79.589844 49.171875 " style=" stroke:none;fill-rule:nonzero;fill:rgb(98.039216%,43.921569%,69.803922%);fill-opacity:1;" />
<path d="M 200.242188 49.171875 C 200.242188 59.8125 191.617188 68.4375 180.976562 68.4375 C 170.339844 68.4375 161.714844 59.8125 161.714844 49.171875 C 161.714844 38.535156 170.339844 29.910156 180.976562 29.910156 C 191.617188 29.910156 200.242188 38.535156 200.242188 49.171875 Z M 200.242188 49.171875 " style=" stroke:none;fill-rule:nonzero;fill:rgb(28.627451%,74.117647%,56.470588%);fill-opacity:1;" />
<path d="M 139.914062 49.171875 C 139.914062 59.8125 131.289062 68.4375 120.652344 68.4375 C 110.011719 68.4375 101.386719 59.8125 101.386719 49.171875 C 101.386719 38.535156 110.011719 29.910156 120.652344 29.910156 C 131.289062 29.910156 139.914062 38.535156 139.914062 49.171875 Z M 139.914062 49.171875 " style=" stroke:none;fill-rule:nonzero;fill:rgb(100%,81.568627%,38.039216%);fill-opacity:1;" />
<path d="M 41.101562 119.804688 L 167.835938 119.804688 L 167.835938 388.464844 L 41.101562 388.464844 Z M 41.101562 119.804688 " style=" stroke:none;fill-rule:nonzero;fill:rgb(98.039216%,43.921569%,69.803922%);fill-opacity:1;" />
<path d="M 202.238281 119.804688 L 470.898438 119.804688 L 470.898438 233.808594 L 202.238281 233.808594 Z M 202.238281 119.804688 " style=" stroke:none;fill-rule:nonzero;fill:rgb(100%,81.568627%,38.039216%);fill-opacity:1;" />
<path d="M 202.238281 274.457031 L 470.898438 274.457031 L 470.898438 388.464844 L 202.238281 388.464844 Z M 202.238281 274.457031 " style=" stroke:none;fill-rule:nonzero;fill:rgb(34.509804%,76.470588%,90.980392%);fill-opacity:1;" />
<path d="M 473.675781 0 L 38.335938 0 C 17.195312 0 0 17.195312 0 38.335938 L 0 390.84375 C 0 411.980469 17.195312 429.175781 38.335938 429.175781 L 98.792969 429.175781 C 102.992188 429.175781 106.398438 425.773438 106.398438 421.574219 C 106.398438 417.375 102.992188 413.96875 98.792969 413.96875 L 38.335938 413.96875 C 25.582031 413.96875 15.207031 403.597656 15.207031 390.84375 L 15.207031 98.34375 L 379.21875 98.34375 C 383.417969 98.34375 386.820312 94.941406 386.820312 90.742188 C 386.820312 86.542969 383.417969 83.136719 379.21875 83.136719 L 15.207031 83.136719 L 15.207031 38.335938 C 15.207031 25.582031 25.582031 15.207031 38.335938 15.207031 L 473.675781 15.207031 C 486.421875 15.207031 496.792969 25.582031 496.792969 38.335938 L 496.792969 83.136719 L 404.566406 83.136719 C 400.363281 83.136719 396.960938 86.542969 396.960938 90.742188 C 396.960938 94.941406 400.363281 98.34375 404.566406 98.34375 L 496.792969 98.34375 L 496.792969 390.84375 C 496.792969 403.597656 486.421875 413.96875 473.675781 413.96875 L 124.140625 413.96875 C 119.941406 413.96875 116.535156 417.375 116.535156 421.574219 C 116.535156 425.773438 119.941406 429.175781 124.140625 429.175781 L 473.675781 429.175781 C 494.808594 429.175781 512 411.980469 512 390.84375 L 512 38.335938 C 512 17.195312 494.808594 0 473.675781 0 Z M 473.675781 0 " style=" stroke:none;fill-rule:nonzero;fill:rgb(0%,0%,0%);fill-opacity:1;" />
<path d="M 33.457031 49.171875 C 33.457031 63.988281 45.511719 76.039062 60.324219 76.039062 C 75.140625 76.039062 87.191406 63.988281 87.191406 49.171875 C 87.191406 34.355469 75.140625 22.304688 60.324219 22.304688 C 45.511719 22.304688 33.457031 34.359375 33.457031 49.171875 Z M 71.984375 49.171875 C 71.984375 55.601562 66.753906 60.832031 60.324219 60.832031 C 53.894531 60.832031 48.664062 55.601562 48.664062 49.171875 C 48.664062 42.742188 53.894531 37.511719 60.324219 37.511719 C 66.753906 37.511719 71.984375 42.742188 71.984375 49.171875 Z M 71.984375 49.171875 " style=" stroke:none;fill-rule:nonzero;fill:rgb(0%,0%,0%);fill-opacity:1;" />
<path d="M 154.109375 49.171875 C 154.109375 63.988281 166.164062 76.039062 180.976562 76.039062 C 195.792969 76.039062 207.84375 63.988281 207.84375 49.171875 C 207.84375 34.359375 195.792969 22.304688 180.976562 22.304688 C 166.164062 22.304688 154.109375 34.359375 154.109375 49.171875 Z M 192.636719 49.171875 C 192.636719 55.601562 187.40625 60.832031 180.976562 60.832031 C 174.546875 60.832031 169.316406 55.601562 169.316406 49.171875 C 169.316406 42.742188 174.546875 37.511719 180.976562 37.511719 C 187.40625 37.511719 192.636719 42.742188 192.636719 49.171875 Z M 192.636719 49.171875 " style=" stroke:none;fill-rule:nonzero;fill:rgb(0%,0%,0%);fill-opacity:1;" />
<path d="M 93.785156 49.171875 C 93.785156 63.988281 105.835938 76.039062 120.652344 76.039062 C 135.464844 76.039062 147.519531 63.988281 147.519531 49.171875 C 147.519531 34.359375 135.464844 22.304688 120.652344 22.304688 C 105.835938 22.304688 93.785156 34.359375 93.785156 49.171875 Z M 132.3125 49.171875 C 132.3125 55.601562 127.082031 60.832031 120.652344 60.832031 C 114.222656 60.832031 108.992188 55.601562 108.992188 49.171875 C 108.992188 42.742188 114.222656 37.511719 120.652344 37.511719 C 127.082031 37.511719 132.3125 42.742188 132.3125 49.171875 Z M 132.3125 49.171875 " style=" stroke:none;fill-rule:nonzero;fill:rgb(0%,0%,0%);fill-opacity:1;" />
<path d="M 175.441406 388.464844 L 175.441406 119.804688 C 175.441406 115.605469 172.039062 112.199219 167.835938 112.199219 L 41.101562 112.199219 C 36.902344 112.199219 33.496094 115.605469 33.496094 119.804688 L 33.496094 388.464844 C 33.496094 392.664062 36.902344 396.066406 41.101562 396.066406 L 167.835938 396.066406 C 172.039062 396.066406 175.441406 392.664062 175.441406 388.464844 Z M 160.234375 380.859375 L 48.703125 380.859375 L 48.703125 127.40625 L 160.234375 127.40625 Z M 160.234375 380.859375 " style=" stroke:none;fill-rule:nonzero;fill:rgb(0%,0%,0%);fill-opacity:1;" />
<path d="M 202.238281 241.414062 L 470.898438 241.414062 C 475.101562 241.414062 478.503906 238.007812 478.503906 233.808594 L 478.503906 119.804688 C 478.503906 115.605469 475.101562 112.199219 470.898438 112.199219 L 202.238281 112.199219 C 198.039062 112.199219 194.636719 115.605469 194.636719 119.804688 L 194.636719 233.808594 C 194.636719 238.007812 198.039062 241.414062 202.238281 241.414062 Z M 209.84375 127.40625 L 463.296875 127.40625 L 463.296875 226.203125 L 209.84375 226.203125 Z M 209.84375 127.40625 " style=" stroke:none;fill-rule:nonzero;fill:rgb(0%,0%,0%);fill-opacity:1;" />
<path d="M 194.636719 388.464844 C 194.636719 392.664062 198.039062 396.066406 202.238281 396.066406 L 470.898438 396.066406 C 475.101562 396.066406 478.503906 392.664062 478.503906 388.464844 L 478.503906 274.457031 C 478.503906 270.257812 475.101562 266.855469 470.898438 266.855469 L 202.238281 266.855469 C 198.039062 266.855469 194.636719 270.257812 194.636719 274.457031 Z M 209.84375 282.0625 L 463.296875 282.0625 L 463.296875 380.859375 L 209.84375 380.859375 Z M 209.84375 282.0625 " style=" stroke:none;fill-rule:nonzero;fill:rgb(0%,0%,0%);fill-opacity:1;" />
<path d="M 72.535156 168.464844 L 136.40625 168.464844 C 140.605469 168.464844 144.007812 165.0625 144.007812 160.863281 C 144.007812 156.664062 140.605469 153.257812 136.40625 153.257812 L 72.535156 153.257812 C 68.335938 153.257812 64.929688 156.664062 64.929688 160.863281 C 64.929688 165.0625 68.335938 168.464844 72.535156 168.464844 Z M 72.535156 168.464844 " style=" stroke:none;fill-rule:nonzero;fill:rgb(0%,0%,0%);fill-opacity:1;" />
<path d="M 72.535156 214.214844 L 136.40625 214.214844 C 140.605469 214.214844 144.007812 210.808594 144.007812 206.609375 C 144.007812 202.410156 140.605469 199.003906 136.40625 199.003906 L 72.535156 199.003906 C 68.335938 199.003906 64.929688 202.410156 64.929688 206.609375 C 64.929688 210.808594 68.335938 214.214844 72.535156 214.214844 Z M 72.535156 214.214844 " style=" stroke:none;fill-rule:nonzero;fill:rgb(0%,0%,0%);fill-opacity:1;" />
<path d="M 72.535156 259.960938 L 136.40625 259.960938 C 140.605469 259.960938 144.007812 256.554688 144.007812 252.355469 C 144.007812 248.15625 140.605469 244.753906 136.40625 244.753906 L 72.535156 244.753906 C 68.335938 244.753906 64.929688 248.15625 64.929688 252.355469 C 64.929688 256.554688 68.335938 259.960938 72.535156 259.960938 Z M 72.535156 259.960938 " style=" stroke:none;fill-rule:nonzero;fill:rgb(0%,0%,0%);fill-opacity:1;" />
<path d="M 72.535156 305.707031 L 136.40625 305.707031 C 140.605469 305.707031 144.007812 302.304688 144.007812 298.105469 C 144.007812 293.90625 140.605469 290.5 136.40625 290.5 L 72.535156 290.5 C 68.335938 290.5 64.929688 293.90625 64.929688 298.105469 C 64.929688 302.304688 68.335938 305.707031 72.535156 305.707031 Z M 72.535156 305.707031 " style=" stroke:none;fill-rule:nonzero;fill:rgb(0%,0%,0%);fill-opacity:1;" />
<path d="M 72.535156 351.457031 L 136.40625 351.457031 C 140.605469 351.457031 144.007812 348.050781 144.007812 343.851562 C 144.007812 339.652344 140.605469 336.25 136.40625 336.25 L 72.535156 336.25 C 68.335938 336.25 64.929688 339.652344 64.929688 343.851562 C 64.929688 348.050781 68.335938 351.457031 72.535156 351.457031 Z M 72.535156 351.457031 " style=" stroke:none;fill-rule:nonzero;fill:rgb(0%,0%,0%);fill-opacity:1;" />
</g>
</svg>