<svg height="512" viewBox="0 0 64 64" width="512" xmlns="http://www.w3.org/2000/svg"><rect fill="#57a4ff" height="58" rx="4" width="36" x="14" y="3"/><path d="m14 29v28a4 4 0 0 0 4 4h23.4c-18.02-3.79-27.4-15.006-27.4-32z" fill="#2488ff"/><path d="m23 9h18a2 2 0 0 0 2-2v-4h-22v4a2 2 0 0 0 2 2z" fill="#6d6e71"/><path d="m40 13h-4v17a4.941 4.941 0 0 1 1 3 6.292 6.292 0 0 1 -1 2.82 29.864 29.864 0 0 1 -3.1 4.18c-.53.62-.9 1-.9 1s-.37-.38-.9-1h-13.1v4h18v9h4v-25h6v-4h-6z" fill="#ffdaaa"/><path d="m40 28h6v25h-6z" fill="#9cdd05"/><path d="m18 44h18v9h-18z" fill="#ffcd00"/><path d="m24.026 53a27.209 27.209 0 0 1 -6.026-7.275v7.275z" fill="#ebbf00"/><path d="m29 13.7v-.7h-11v16l1.621-.737a16 16 0 0 0 9.379-14.563z" fill="#ff9811"/><path d="m40 13h6v11h-6z" fill="#5eac24"/><path d="m27 33a5 5 0 0 1 9-3v-17h-7v.7a16 16 0 0 1 -9.379 14.566l-1.621.734v11h13.1c-1.44-1.66-4.1-4.99-4.1-7z" fill="#9cdd05"/><path d="m37 33a6.292 6.292 0 0 1 -1 2.82 29.864 29.864 0 0 1 -3.1 4.18c-.53.62-.9 1-.9 1s-.37-.38-.9-1c-1.44-1.66-4.1-4.99-4.1-7a5 5 0 0 1 9-3 4.941 4.941 0 0 1 1 3z" fill="#ff3051"/><circle cx="32" cy="33" fill="#f1f2f2" r="2"/><path d="m46 2h-28a5.006 5.006 0 0 0 -5 5v50a5.006 5.006 0 0 0 5 5h28a5.006 5.006 0 0 0 5-5v-50a5.006 5.006 0 0 0 -5-5zm-24 2h20v3a1 1 0 0 1 -1 1h-18a1 1 0 0 1 -1-1zm27 53a3 3 0 0 1 -3 3h-28a3 3 0 0 1 -3-3v-50a3 3 0 0 1 3-3h2v3a3 3 0 0 0 3 3h18a3 3 0 0 0 3-3v-3h2a3 3 0 0 1 3 3z"/><path d="m43 56h-22a1 1 0 0 0 0 2h22a1 1 0 0 0 0-2z"/><path d="m46 12h-28a1 1 0 0 0 -1 1v40a1 1 0 0 0 1 1h28a1 1 0 0 0 1-1v-40a1 1 0 0 0 -1-1zm-7 16v24h-2v-8a1 1 0 0 0 -1-1h-17v-2h11.645c.384.435.639.7.639.7a1 1 0 0 0 1.432 0s.388-.4.939-1.042a30.662 30.662 0 0 0 3.213-4.339 7 7 0 0 0 1.132-3.319 5.9 5.9 0 0 0 -1-3.286v-15.714h2v10a1 1 0 0 0 1 1h5v2h-5a1 1 0 0 0 -1 1zm-4-14v13.82a5.978 5.978 0 0 0 -9 5.18c0 1.451 1.015 3.471 2.987 6h-9.987v-9.356l1.035-.471a17.03 17.03 0 0 0 9.954-15.173zm-3 25.513-.145-.168c-2.414-2.784-3.855-5.156-3.855-6.345a4 4 0 0 1 7.2-2.4 3.927 3.927 0 0 1 .8 2.4 5.1 5.1 0 0 1 -.863 2.316 29.53 29.53 0 0 1 -3 4.034zm13-16.513h-4v-9h4zm-17.011-9a15.028 15.028 0 0 1 -8.782 13.353l-.207.094v-13.447zm-8.989 31h16v7h-16zm22 7v-23h4v23z"/><path d="m35 33a3 3 0 1 0 -3 3 3 3 0 0 0 3-3zm-3 1a1 1 0 1 1 1-1 1 1 0 0 1 -1 1z"/></svg>