<svg id="Layer_5" enable-background="new 0 0 64 64" height="512" viewBox="0 0 64 64" width="512" xmlns="http://www.w3.org/2000/svg"><g><g><g><path d="m12 14v26h42c1.1 0 2 .9 2 2v4h4c1.1 0 2-.9 2-2v-30z" fill="#e6e9ed"/></g><g><path d="m42 34v2h-9.65c-.18-1.19-.32-2.12-.4-2.61l-.52-3.39h-3.29c-2.65 0-5.19-1.05-7.07-2.93l-3.07-3.07-2 2v-8h26z" fill="#4fc1e9"/></g><g><path d="m56 46v14c0 1.1-.9 2-2 2h-24c-1.1 0-2-.9-2-2v-2.32c5.16-3.34 6-5.73 6-7.68 0-1.78-.55-6.14-1.09-10h.01 21.08c1.1 0 2 .9 2 2z" fill="#f0d0b4"/></g><g><path d="m62 4v10h-50v-10c0-1.1.9-2 2-2h46c1.1 0 2 .9 2 2z" fill="#b4dd7f"/></g><g><path d="m52 51h-7v-7c3.87 0 7 3.13 7 7z" fill="#ff826e"/></g><g><path d="m45 51h7c0 3.87-3.13 7-7 7s-7-3.13-7-7 3.13-7 7-7z" fill="#fcd770"/></g><g><path d="m32 6h4v4h-4z" fill="#e6e9ed"/></g><g><path d="m28 57.68c-1.63 1.06-3.7 2.21-6.32 3.48-1.36.66-2.84.93-4.38.81-1.09-.08-2.16-.41-3.15-.89-10.7-5.22-12.15-8.53-12.15-11.08 0-3.15 1.71-14.39 2.05-16.61l.52-3.39h3.29c1.44 0 2.85-.31 4.14-.9 1.08-.49 2.07-1.17 2.93-2.03l1.07-1.07 2-2 3.07 3.07c1.88 1.88 4.42 2.93 7.07 2.93h3.29l.52 3.39c.08.49.22 1.42.4 2.61.16 1.15.36 2.54.56 4 .54 3.86 1.09 8.22 1.09 10 0 1.95-.84 4.34-6 7.68z" fill="#aab2bd"/></g><g><path d="m24 6h4v4h-4z" fill="#e6e9ed"/></g><g><path d="m16 6h4v4h-4z" fill="#e6e9ed"/></g><g><path d="m28 34h-.34c-1.82 0-3.59-.36-5.23-1.04s-3.15-1.68-4.43-2.96c-2.56 2.56-6.03 4-9.66 4h-.34s-2 13-2 16c0 2.46 7.41 6.27 10.07 7.56.6.29 1.26.44 1.93.44s1.33-.15 1.93-.44c2.66-1.29 10.07-5.1 10.07-7.56 0-3-2-16-2-16z" fill="#ffeaa7"/></g></g><g><path d="m28.858 33h-1.201c-3.381 0-6.559-1.316-8.95-3.707l-.707-.707-.707.707c-2.391 2.391-5.569 3.707-8.95 3.707h-1.201l-.13.848c-.082.534-2.012 13.11-2.012 16.152 0 2.197 3.577 5.042 10.632 8.459.741.359 1.537.541 2.368.541s1.627-.182 2.368-.541c7.055-3.417 10.632-6.262 10.632-8.459 0-3.042-1.93-15.618-2.012-16.152zm-21.858 17c0-2.456 1.422-12.093 1.861-15.009 2.967-.102 5.779-1.084 8.139-2.818v24.659c-.168-.051-.338-.096-.496-.173-6.973-3.377-9.504-5.832-9.504-6.659zm12.496 6.659c-.159.077-.328.122-.496.173v-24.659c2.36 1.734 5.172 2.716 8.139 2.818.439 2.916 1.861 12.552 1.861 15.009 0 .827-2.531 3.282-9.504 6.659z"/><path d="m60 1h-46c-1.654 0-3 1.346-3 3v24.428c-.993.37-2.051.572-3.142.572h-4.148l-.652 4.24c-.482 3.138-2.058 13.624-2.058 16.76 0 3.004 1.541 6.535 12.717 11.976 1.167.569 2.347.903 3.506.994.263.02.524.03.782.03 1.437 0 2.814-.315 4.106-.941 1.891-.916 3.504-1.776 4.888-2.591v.532c0 1.654 1.346 3 3 3h24c1.654 0 3-1.346 3-3v-13h3c1.654 0 3-1.346 3-3v-40c.001-1.654-1.345-3-2.999-3zm-46 2h46c.551 0 1 .449 1 1v9h-48v-9c0-.551.449-1 1-1zm7.24 57.259c-1.201.582-2.498.825-3.861.716-.909-.071-1.846-.339-2.787-.797-10.274-5.003-11.592-8.067-11.592-10.178 0-3.072 1.695-14.247 2.035-16.457l.391-2.543h2.432c2.938 0 5.7-1.144 7.778-3.222l1.364-1.364 1-1 2.364 2.364c2.078 2.078 4.84 3.222 7.778 3.222h2.432l.391 2.543c.34 2.21 2.035 13.385 2.035 16.457 0 2.125-1.337 5.211-11.76 10.259zm11.701-27.019-.651-4.24h-4.147c-2.404 0-4.664-.936-6.364-2.636l-3.779-3.778-1 1v-4.586h24v16h-7.791c-.106-.704-.199-1.313-.268-1.76zm22.059 26.76c0 .551-.449 1-1 1h-24c-.551 0-1-.449-1-1v-1.78c5.13-3.422 6-5.969 6-8.22 0-1.664-.444-5.394-.932-9h19.932c.551 0 1 .449 1 1zm5-15h-3v-3c0-1.654-1.346-3-3-3h-20.209c-.098-.696-.195-1.365-.287-2h9.496v-20h-28v8.586l-.778.778c-.38.38-.791.715-1.222 1.016v-12.38h48v29c0 .551-.449 1-1 1z"/><path d="m45 43c-4.411 0-8 3.589-8 8s3.589 8 8 8 8-3.589 8-8-3.589-8-8-8zm5.91 7h-4.91v-4.91c2.507.424 4.486 2.403 4.91 4.91zm-5.91 7c-3.309 0-6-2.691-6-6 0-2.967 2.167-5.431 5-5.91v6.91h6.91c-.479 2.833-2.943 5-5.91 5z"/><path d="m21 5h-6v6h6zm-2 4h-2v-2h2z"/><path d="m29 5h-6v6h6zm-2 4h-2v-2h2z"/><path d="m37 5h-6v6h6zm-2 4h-2v-2h2z"/><path d="m45 17h14v2h-14z"/><path d="m45 21h14v2h-14z"/><path d="m45 25h14v2h-14z"/><path d="m57 29h2v2h-2z"/><path d="m45 29h10v2h-10z"/><path d="m45 33h14v2h-14z"/></g></g></svg>