<svg height="511pt" viewBox="-18 0 511 511.96373" width="511pt" xmlns="http://www.w3.org/2000/svg"><path d="m339.601562 64.253906-9.8125-13.058594h12.800782c3.214844.03125 6.238281 1.542969 8.191406 4.097657l15.273438 20.394531c1.796874 2.414062 2.757812 5.351562 2.730468 8.363281-.007812 1.964844-.414062 3.910157-1.195312 5.714844l-29.269532-7.335937c4.820313-4.929688 5.359376-12.621094 1.28125-18.175782zm0 0" fill="#2e7d32"/><path d="m460.859375 171.515625-9.640625 14.507813c-.757812 1.105468-1.277344 2.355468-1.539062 3.667968l-7.507813 37.632813c-.394531 2.003906-1.375 3.84375-2.816406 5.289062l-22.699219 22.699219-1.535156 1.28125-22.527344 14.933594c-1.46875 1.039062-2.667969 2.414062-3.5 4.011718l-15.785156 31.65625-13.570313 27.136719c-2.242187 4.453125-6.328125 7.699219-11.175781 8.875l-13.570312 3.414063c-7.59375 1.894531-12.914063 8.726562-12.882813 16.554687-.019531 7.351563-4.722656 13.875-11.691406 16.210938l-11.691407 3.839843c-1.476562.527344-2.816406 1.371094-3.925781 2.476563l-14.675781 14.675781c-.515625.433594-.949219.953125-1.28125 1.539063l-13.480469 20.136719c-1.960937 3.023437-3 6.550781-2.988281 10.15625v12.457031c-.007812 4.863281-1.941406 9.527343-5.375 12.972656l-1.453125 1.449219c-1.179687 1.082031-2.039063 2.46875-2.472656 4.011718l-7.425781 22.101563c-.253907.765625-.597657 1.621094-.9375 2.386719l-2.902344 5.804687c-3.441406 6.8125-10.746094 10.78125-18.335938 9.964844s-13.878906-6.246094-15.796875-13.636719c3.3125-1.714844 6-4.433594 7.679688-7.761718l2.902343-5.804688c.339844-.769531.683594-1.621094.9375-2.390625l7.425782-22.101563c.433594-1.539062 1.292968-2.929687 2.472656-4.007812l1.453125-1.453125c3.433594-3.441406 5.367187-8.105469 5.375-12.96875v-12.460937c-.011719-3.601563 1.027344-7.128907 2.984375-10.152344l13.484375-20.140625c.332031-.582031.765625-1.105469 1.28125-1.535157l14.675781-14.675781c1.109375-1.105469 2.449219-1.953125 3.925782-2.476562l11.691406-3.839844c6.96875-2.339844 11.671875-8.859375 11.691406-16.210937-.03125-7.828126 5.289062-14.664063 12.882812-16.554688l13.570313-3.414062c4.84375-1.179688 8.933594-4.421876 11.175781-8.875l13.570313-27.136719 15.785156-31.660157c.832031-1.59375 2.03125-2.96875 3.5-4.007812l22.527344-14.933594 1.535156-1.28125 22.699219-22.699218c1.441406-1.445313 2.421875-3.285157 2.816406-5.289063l7.507812-37.632813c.261719-1.316406.78125-2.5625 1.539063-3.667968l9.640625-14.507813c10.4375-15.585937 6.320312-36.675781-9.214844-47.191406l16.382813 6.574219 3.585937 1.449218c9.539063 3.824219 16.847656 11.746094 19.890625 21.5625 3.046875 9.820313 1.507813 20.484376-4.191406 29.039063zm0 0" fill="#2e7d32"/><path d="m434.40625 160.082031-9.640625 14.507813c-.757813 1.105468-1.277344 2.351562-1.539063 3.667968l-7.507812 37.632813c-.394531 2.003906-1.375 3.84375-2.816406 5.289063l-22.699219 22.699218-1.535156 1.28125-22.527344 14.933594c-1.46875 1.039062-2.667969 2.414062-3.5 4.007812l-15.785156 31.660157-13.570313 27.136719c-2.242187 4.453124-6.332031 7.695312-11.175781 8.875l-13.570313 3.414062c-7.59375 1.890625-12.914062 8.726562-12.882812 16.554688-.019531 7.351562-4.722656 13.871093-11.691406 16.210937l-11.691406 3.839844c-1.476563.523437-2.816407 1.371093-3.925782 2.476562l-14.675781 14.675781c-.515625.429688-.949219.953126-1.28125 1.535157l-13.484375 20.140625c-1.957031 3.023437-2.996094 6.550781-2.984375 10.152344v12.460937c-.007813 4.863281-1.941406 9.527344-5.375 12.96875l-1.453125 1.453125c-1.179688 1.078125-2.039062 2.46875-2.472656 4.007812l-7.425782 22.101563c-.253906.769531-.597656 1.621094-.9375 2.390625l-2.902343 5.804688c-1.679688 3.328124-4.367188 6.046874-7.679688 7.761718v-.082031l-3.753906-15.191406c-.867187-3.347657-.75-6.875.339844-10.152344l5.378906-15.960937c.980469-3.03125 1.15625-6.265626.511719-9.386719l-7.339844-36.863281c-.140625-.671876-.199219-1.359376-.171875-2.046876v-21.078124c-.023437-7.910157 1.816406-15.71875 5.375-22.785157l6.316406-12.628906c3.519531-7.078125 5.359375-14.875 5.375-22.78125-.023437-3.351563.289063-6.699219.941407-9.984375l3.839843-19.03125c3.839844-19.027344-12.800781-60.328125-44.035156-93.355469-31.230469-33.023437-11.605469-104.277343-3.070313-140.117187l4.691407-18.773438c2.378906-9.542968 8.453125-17.753906 16.890625-22.8125s18.542968-6.554687 28.082031-4.152344l18.261719 4.523438 23.808594 4.777344 15.785156 3.160156c1.972656.414062 3.78125 1.394531 5.207031 2.816406l20.394531 20.394532c1.941406 1.894531 4.539063 2.964843 7.253906 2.984374h12.03125l9.8125 13.058594c4.078126 5.554688 3.539063 13.246094-1.28125 18.175782l29.269532 7.335937c-.699219 1.515625-1.648438 2.902344-2.816406 4.097656l33.453124 8.363281c.4375.101563.867188.246094 1.277344.425782l25.6875 10.238281c15.535156 10.515625 19.652344 31.605469 9.214844 47.191406zm0 0" fill="#4caf50"/><path d="m425.191406 112.890625-25.6875-10.238281c-.410156-.179688-.839844-.324219-1.277344-.425782l-33.453124-8.363281c1.167968-1.195312 2.117187-2.582031 2.816406-4.097656l4.183594 1.027344c.4375.101562.867187.246093 1.277343.425781l42.070313 16.808594 3.585937 1.453125c2.285157.878906 4.464844 2.023437 6.484375 3.410156zm0 0" fill="#4fba6f"/><path d="m267.410156 125.691406c-.023437 2.261719-.910156 4.429688-2.476562 6.058594l-132.691406 132.695312c-3.355469 3.328126-8.765626 3.328126-12.117188 0-3.566406-3.496093-6.433594-7.636718-8.449219-12.203124-2.675781-5.59375-4.046875-11.722657-4.011719-17.921876-.039062-11.324218 4.445313-22.199218 12.460938-30.207031l84.480469-84.480469c9.824219-9.847656 23.855469-14.25 37.546875-11.773437 8.652344 1.402344 16.632812 5.527344 22.78125 11.773437 1.578125 1.625 2.46875 3.796876 2.476562 6.058594zm0 0" fill="#c52828"/><path d="m249.402344 135.503906c.046875 2.277344-.847656 4.46875-2.472656 6.058594l-131.5 131.5c-2.671876-5.59375-4.042969-11.71875-4.007813-17.917969 0-10.925781.167969-33.453125 8.53125-41.816406l76.800781-76.796875c10.152344-10.15625 46.421875-10.925781 59.734375-8.535156.339844.171875-.34375 8.191406 0 8.535156 1.707031 1.707031-7.085937-3.160156-7.085937-1.027344zm0 0" fill="#f44335"/><path d="m204.605469 119.632812-16.8125 16.898438h-.085938l-67.582031 67.582031-68.523438-95.914062-.171874-.257813 57.601562-56.574218zm0 0" fill="#c52828"/><path d="m187.707031 136.53125-67.582031 67.582031-68.523438-95.914062 40.617188-39.9375zm0 0" fill="#f44335"/><path d="m277.136719 288.507812-1.875-1.449218-90.796875-67.925782-4.011719-2.988281 36.183594-36.179687 72.363281 96.683594c2.316406 3.386718 1.894531 7.949218-1.007812 10.851562-2.90625 2.902344-7.464844 3.328125-10.855469 1.007812zm0 0" fill="#9e9e9e"/><path d="m275.261719 287.058594-90.796875-67.925782 22.871094-22.871093zm0 0" fill="#cfd8dc"/><path d="m120.550781 41.210938c-.003906 11.296874-4.484375 22.128906-12.457031 30.125l-36.269531 36.265624c-16.71875 16.515626-43.609375 16.515626-60.328125 0-3.300782-3.363281-3.300782-8.753906 0-12.117187l84.480468-84.480469c3.351563-3.328125 8.761719-3.328125 12.117188 0 7.976562 8.027344 12.457031 18.890625 12.457031 30.207032zm0 0" fill="#c52828"/><path d="m103.484375 49.746094c-.003906 11.292968-4.484375 22.125-12.457031 30.121094l-36.269532 36.269531c-.933593.949219-1.929687 1.832031-2.984374 2.644531-14.457032 3.613281-29.753907-.628906-40.277344-11.179688-3.300782-3.363281-3.300782-8.753906 0-12.117187l77.480468-77.484375c.75.414062 1.441407.933594 2.050782 1.539062 7.976562 8.027344 12.457031 18.886719 12.457031 30.207032zm0 0" fill="#f44335"/><path d="m272.394531 295.574219c6.839844 4.539062 15.941407 3.570312 21.667969-2.3125 5.726562-5.886719 6.453125-15.011719 1.730469-21.726563l-67.859375-90.75 43.058594-43.042968c6.664062-6.664063 6.664062-17.46875 0-24.132813-17.976563-18.007813-46.460938-20.039063-66.816407-4.769531l-76.753906-54.808594c1.101563-4.179688 1.675781-8.480469 1.703125-12.800781.039062-13.605469-5.375-26.65625-15.035156-36.234375-6.664063-6.660156-17.464844-6.660156-24.132813 0l-84.476562 84.480468c-6.664063 6.664063-6.664063 17.46875 0 24.132813 12.792969 12.863281 31.472656 17.941406 49.023437 13.328125l54.910156 76.878906c-15.199218 20.304688-13.210937 48.6875 4.667969 66.679688 3.195313 3.210937 7.542969 5.011718 12.074219 5 4.527344.015625 8.871094-1.785156 12.058594-5l43.042968-43.042969zm9.847657-13.933594-88.75-66.390625 22.28125-22.28125zm-264.6875-180.097656 84.480468-84.480469c6.398438 6.402344 9.996094 15.085938 9.996094 24.136719 0 9.054687-3.597656 17.734375-9.996094 24.136719l-36.207031 36.207031c-6.402344 6.402343-15.085937 10-24.136719 10-9.054687 0-17.738281-3.597657-24.136718-10zm103.5-31.09375 70.390624 50.277343-70.230468 70.230469-50.277344-70.394531zm5.121093 187.96875c-13.304687-13.339844-13.304687-34.929688 0-48.269531l84.476563-84.480469c6.402344-6.40625 15.085937-10.003907 24.144531-10.003907 9.054687 0 17.738281 3.597657 24.140625 10.003907zm0 0"/><path d="m448.359375 113.003906-45.671875-18.289062c-.773438-.328125-1.570312-.589844-2.386719-.785156l-23.359375-5.835938c.253906-1.339844.378906-2.699219.378906-4.0625.019532-4.851562-1.535156-9.578125-4.429687-13.472656l-15.359375-20.480469c-3.570312-4.644531-9.085938-7.382813-14.941406-7.414063h-24.832032c-.453124-.019531-.882812-.191406-1.222656-.488281l-20.402344-20.410156c-2.625-2.59375-5.945312-4.371094-9.558593-5.121094l-39.253907-7.859375-18.140624-4.523437c-11.734376-2.957031-24.167969-1.121094-34.546876 5.101562-10.382812 6.226563-17.859374 16.324219-20.78125 28.070313l-4.695312 18.773437c-.851562 2.992188-.007812 6.214844 2.207031 8.402344 2.214844 2.191406 5.445313 3 8.429688 2.113281 2.984375-.886718 5.25-3.328125 5.910156-6.371094l4.703125-18.773437c1.824219-7.34375 6.5-13.660156 12.992188-17.550781 6.488281-3.894532 14.261718-5.046875 21.601562-3.199219l18.636719 4.597656 39.457031 7.910157c.371094.074218.710938.25.980469.511718l20.523437 20.480469c3.519532 3.441406 8.238282 5.375 13.160156 5.402344h24.832032c.527344.019531 1.023437.269531 1.355468.683593l15.308594 20.425782c.667969.9375 1.015625 2.0625 1 3.210937.015625 1.410157-.53125 2.769531-1.519531 3.777344-2.175781 2.175781-3.007813 5.355469-2.183594 8.316406.820313 2.960938 3.175781 5.253907 6.160157 5.996094l33.628906 8.429687 45.660156 18.28125c7.160156 2.859376 12.644531 8.804688 14.925781 16.167969 2.28125 7.367188 1.117188 15.371094-3.175781 21.777344l-9.53125 14.378906c-1.402344 2.0625-2.382812 4.382813-2.882812 6.828125l-7.5 37.546875c-.054688.371094-.222657.71875-.488282.988281l-22.1875 22.1875-23.492187 15.804688c-2.609375 1.859375-4.738281 4.320312-6.203125 7.175781l-29.363282 58.785157c-1.128906 2.230468-3.1875 3.847656-5.621093 4.410156l-13.527344 3.414062c-11.421875 2.824219-19.425781 13.09375-19.378906 24.859375-.015625 3.664063-2.351563 6.917969-5.820313 8.105469l-11.867187 3.898438c-2.675781.949218-5.109375 2.484374-7.117188 4.492187l-14.15625 14.1875c-1.132812.9375-2.101562 2.054687-2.859375 3.3125l-13.519531 20.191406c-2.886719 4.410157-4.417969 9.574219-4.394531 14.847657v12.457031c-.007813 2.601562-1.042969 5.09375-2.875 6.9375l-1.246094 1.246093c-2.226562 2.042969-3.863281 4.644532-4.742188 7.535157l-7.417968 22.101562c-.167969.527344-.417969 1.117188-.476563 1.289063l-2.859375 5.714844c-1.675781 3.324218-5.074218 5.421874-8.796875 5.4375-4.464843.007812-8.363281-3.015626-9.464843-7.339844l-3.769532-15.246094c-.460937-1.753906-.40625-3.601562.152344-5.328125l5.4375-16.109375c1.421875-4.410156 1.675781-9.113281.742188-13.652344l-7.347657-37.214844v-21.078124c-.03125-6.589844 1.503907-13.089844 4.480469-18.96875l6.320312-12.664063c4.09375-8.257813 6.238282-17.347656 6.265626-26.5625-.027344-2.785156.230468-5.5625.765624-8.296875l3.839844-19.027344c.613282-2.988281-.417968-6.074218-2.703125-8.097656-2.28125-2.019531-5.46875-2.671875-8.359375-1.707031-2.894531.96875-5.050781 3.402343-5.660156 6.390625l-3.839844 19.003906c-.769531 3.851562-1.144531 7.773438-1.109375 11.699219-.003906 6.585937-1.539062 13.078125-4.480469 18.96875l-6.289062 12.597656c-4.179688 8.25-6.339844 17.378906-6.296875 26.628906v21.078125c-.039063 1.246094.070313 2.492188.332031 3.714844l7.371094 37c.328125 1.617188.242188 3.289062-.253906 4.863281l-5.367188 15.914063c-1.617187 4.832031-1.808594 10.027344-.554687 14.96875l3.769531 15.222656c2.75 10.871094 11.96875 18.894531 23.117188 20.117188 11.148437 1.222656 21.882812-4.613282 26.921874-14.628907l3.066407-6.164062c.449219-1.003907.894531-2.125 1.234375-3.128907l7.835937-22.792968 1.449219-1.453125c5.027344-5.046875 7.859375-11.878907 7.875-19.003907v-12.421874c-.011719-1.914063.523438-3.792969 1.546875-5.410157l13.804687-20.617187c-.144531.265625-.433593.589844-.101562.273437l15.242188-15.078125 11.785156-3.875c10.425781-3.535156 17.449218-13.316406 17.457031-24.328125-.023437-3.914062 2.636719-7.335937 6.433594-8.277343l13.519531-3.414063c7.28125-1.765625 13.417969-6.644531 16.773438-13.347656l29.289062-58.648438c.160156-.324219.386719-.613281.65625-.851562l22.527344-14.933594c.238281-.164063.46875-.332031.707031-.523437l24.84375-24.53125c2.613281-2.648438 4.394531-6.003907 5.117187-9.652344l7.792969-38.246094 9.625-14.507812c7.125-10.691407 9.050781-24.027344 5.242188-36.296876-3.808594-12.273437-12.941407-22.175781-24.867188-26.960937zm0 0"/></svg>