<svg id="Layer_1" enable-background="new 0 0 256 256" height="512" viewBox="0 0 256 256" width="512" xmlns="http://www.w3.org/2000/svg"><path d="m243.15 189.818h-230.3c-4.888 0-8.85-3.962-8.85-8.85v-141.796c0-4.888 3.962-8.85 8.85-8.85h230.3c4.888 0 8.85 3.962 8.85 8.85v141.796c0 4.888-3.962 8.85-8.85 8.85z" fill="#f4efed"/><path d="m243.15 30.322h-115.15v159.496h115.15c4.888 0 8.85-3.962 8.85-8.85v-141.796c0-4.888-3.962-8.85-8.85-8.85z" fill="#fcc24c"/><path d="m141.526 69.23h9.313v23.49h-9.313z" fill="#576fa5"/><path d="m163.46 49.23h9.313v43.49h-9.313z" fill="#576fa5"/><path d="m185.395 59.23h9.313v33.49h-9.313z" fill="#576fa5"/><path d="m207.329 69.23h9.313v23.49h-9.313z" fill="#576fa5"/><path d="m229.263 49.23h9.313v43.49h-9.313z" fill="#576fa5"/><path d="m89.489 169.279h-40.003c-13.543 0-24.561-11.019-24.561-24.562v-69.295c0-13.543 11.019-24.562 24.561-24.562h2.879c13.544 0 24.562 11.019 24.562 24.562v12.196c0 6.927 5.635 12.562 12.562 12.562 13.543 0 24.562 11.019 24.562 24.562v19.976c0 13.543-11.019 24.561-24.562 24.561zm-40.003-106.418c-6.927 0-12.561 5.635-12.561 12.562v69.295c0 6.927 5.635 12.562 12.561 12.562h40.003c6.927 0 12.562-5.636 12.562-12.562v-19.976c0-6.927-5.635-12.562-12.562-12.562-13.543 0-24.562-11.019-24.562-24.562v-12.196c0-6.927-5.636-12.562-12.562-12.562h-2.879z" fill="#ff4397"/><path d="m243.15 30.322h-10c4.888 0 8.85 3.962 8.85 8.85v141.796c0 4.888-3.962 8.85-8.85 8.85h10c4.888 0 8.85-3.962 8.85-8.85v-141.796c0-4.888-3.962-8.85-8.85-8.85z" fill="#dea42e"/><path d="m12.85 189.818h10c-4.888 0-8.85-3.962-8.85-8.85v-141.796c0-4.888 3.962-8.85 8.85-8.85h-10c-4.888 0-8.85 3.962-8.85 8.85v141.796c0 4.888 3.962 8.85 8.85 8.85z" fill="#fff"/><path d="m208.901 225.678h-161.802v-11.854c0-4.888 3.962-8.85 8.85-8.85h144.102c4.888 0 8.85 3.962 8.85 8.85z" fill="#7bac51"/><path d="m200.051 204.974h-10c4.888 0 8.85 3.962 8.85 8.85v11.855h10v-11.855c0-4.888-3.962-8.85-8.85-8.85z" fill="#5d8e33"/><path d="m55.949 204.974h10c-4.888 0-8.85 3.962-8.85 8.85v11.855h-10v-11.855c0-4.888 3.962-8.85 8.85-8.85z" fill="#99ca6f"/><path d="m80.503 189.818h94.993v15.156h-94.993z" fill="#5d8e33"/><g fill="#690589"><path d="m12 67.526c-1.104 0-2-.896-2-2v-12c0-1.104.896-2 2-2s2 .896 2 2v12c0 1.105-.896 2-2 2z"/><path d="m208.901 227.678h-161.802c-1.104 0-2-.896-2-2v-11.854c0-5.983 4.867-10.851 10.851-10.851h144.102c5.983 0 10.851 4.867 10.851 10.851v11.854c-.002 1.104-.897 2-2.002 2zm-159.802-4h157.803v-9.854c0-3.777-3.073-6.851-6.851-6.851h-144.102c-3.777 0-6.851 3.073-6.851 6.851v9.854z"/><path d="m175.497 206.974h-94.994c-1.104 0-2-.896-2-2v-15.155c0-1.104.896-2 2-2h94.994c1.104 0 2 .896 2 2v15.155c0 1.104-.895 2-2 2zm-92.994-4h90.994v-11.155h-90.994z"/><path d="m243.15 191.818h-115.15c-1.104 0-2-.896-2-2v-159.496c0-1.104.896-2 2-2h115.15c5.982 0 10.85 4.867 10.85 10.85v141.797c0 5.982-4.867 10.849-10.85 10.849zm-113.15-4h113.15c3.777 0 6.85-3.072 6.85-6.85v-141.796c0-3.777-3.072-6.85-6.85-6.85h-113.15z"/><path d="m243.15 191.818h-230.3c-5.982 0-10.85-4.867-10.85-10.851v-141.795c0-5.982 4.867-10.85 10.85-10.85h230.3c5.982 0 10.85 4.867 10.85 10.85v141.796c0 5.983-4.867 10.85-10.85 10.85zm-230.3-159.496c-3.777 0-6.85 3.072-6.85 6.85v141.796c0 3.777 3.072 6.851 6.85 6.851h230.3c3.777 0 6.85-3.073 6.85-6.851v-141.796c0-3.777-3.072-6.85-6.85-6.85z"/><path d="m89.489 171.279h-40.003c-14.646 0-26.562-11.916-26.562-26.562v-69.295c0-14.646 11.915-26.562 26.562-26.562h2.879c14.646 0 26.562 11.915 26.562 26.562v12.196c0 5.823 4.738 10.562 10.562 10.562 14.646 0 26.562 11.915 26.562 26.562v19.976c0 14.645-11.915 26.561-26.562 26.561zm-40.003-118.419c-12.44 0-22.562 10.121-22.562 22.562v69.295c0 12.441 10.121 22.562 22.562 22.562h40.003c12.44 0 22.562-10.121 22.562-22.562v-19.976c0-12.44-10.121-22.562-22.562-22.562-8.029 0-14.562-6.532-14.562-14.562v-12.195c0-12.44-10.121-22.562-22.562-22.562zm40.003 106.419h-40.003c-8.029 0-14.562-6.532-14.562-14.562v-69.295c0-8.029 6.532-14.562 14.562-14.562h2.879c8.03 0 14.562 6.532 14.562 14.562v12.196c0 12.44 10.121 22.562 22.562 22.562 8.029 0 14.562 6.532 14.562 14.562v19.976c0 8.029-6.532 14.561-14.562 14.561zm-40.003-94.419c-5.823 0-10.562 4.738-10.562 10.562v69.295c0 5.824 4.738 10.562 10.562 10.562h40.003c5.823 0 10.562-4.738 10.562-10.562v-19.976c0-5.823-4.738-10.562-10.562-10.562-14.646 0-26.562-11.915-26.562-26.562v-12.195c0-5.823-4.738-10.562-10.562-10.562z"/><path d="m36.925 125.334h-12c-1.104 0-2-.896-2-2s.896-2 2-2h12c1.104 0 2 .896 2 2s-.896 2-2 2z"/><path d="m252 112.07h-124c-1.104 0-2-.896-2-2s.896-2 2-2h124c1.104 0 2 .896 2 2s-.896 2-2 2z"/><path d="m150.839 94.721h-9.312c-1.104 0-2-.896-2-2v-23.491c0-1.104.896-2 2-2h9.312c1.104 0 2 .896 2 2v23.49c0 1.105-.896 2.001-2 2.001zm-7.313-4h5.312v-19.491h-5.312z"/><path d="m172.773 94.721h-9.313c-1.104 0-2-.896-2-2v-43.491c0-1.104.896-2 2-2h9.313c1.104 0 2 .896 2 2v43.49c0 1.105-.895 2.001-2 2.001zm-7.313-4h5.313v-39.491h-5.313z"/><path d="m194.707 94.721h-9.312c-1.104 0-2-.896-2-2v-33.491c0-1.104.896-2 2-2h9.312c1.104 0 2 .896 2 2v33.49c0 1.105-.895 2.001-2 2.001zm-7.312-4h5.312v-29.491h-5.312z"/><path d="m216.642 94.721h-9.312c-1.104 0-2-.896-2-2v-23.491c0-1.104.896-2 2-2h9.312c1.104 0 2 .896 2 2v23.49c0 1.105-.896 2.001-2 2.001zm-7.313-4h5.312v-19.491h-5.312z"/><path d="m238.575 94.721h-9.312c-1.104 0-2-.896-2-2v-43.491c0-1.104.896-2 2-2h9.312c1.104 0 2 .896 2 2v43.49c0 1.105-.895 2.001-2 2.001zm-7.312-4h5.312v-39.491h-5.312z"/><path d="m141.528 171.279c-.161 0-.324-.02-.487-.06-1.072-.269-1.723-1.354-1.455-2.426l4.189-16.736c1.154-4.613 4.76-8.103 9.408-9.104s9.371.691 12.324 4.419c1.682 2.123 4.206 3.278 6.905 3.175 2.706-.106 5.125-1.456 6.636-3.704l8.081-12.021c2.284-3.397 6.091-5.445 10.184-5.479.033 0 .067-.001.102-.001 4.054 0 7.848 1.979 10.167 5.31l12.367 17.757c1.787 2.566 4.713 3.892 7.82 3.542 3.108-.349 5.666-2.287 6.841-5.186l2.111-5.209c.415-1.024 1.579-1.518 2.604-1.103 1.024.415 1.518 1.581 1.103 2.604l-2.111 5.209c-1.735 4.281-5.512 7.145-10.103 7.659-4.594.507-8.908-1.442-11.548-5.231l-12.368-17.758c-1.593-2.287-4.097-3.595-6.88-3.595-.024 0-.049 0-.073.001-2.812.022-5.326 1.375-6.896 3.71l-8.081 12.021c-2.231 3.32-5.804 5.313-9.8 5.469-4.029.163-7.713-1.552-10.196-4.687-2.029-2.563-5.147-3.683-8.346-2.993-3.196.689-5.578 2.994-6.371 6.165l-4.189 16.736c-.227.911-1.042 1.516-1.938 1.516z"/><path d="m114.051 52.86h-23.625c-1.104 0-2-.896-2-2s.896-2 2-2h23.625c1.104 0 2 .896 2 2s-.896 2-2 2z"/><path d="m114.051 64.86h-23.625c-1.104 0-2-.896-2-2s.896-2 2-2h23.625c1.104 0 2 .896 2 2s-.896 2-2 2z"/><path d="m114.051 76.86h-23.625c-1.104 0-2-.896-2-2s.896-2 2-2h23.625c1.104 0 2 .896 2 2s-.896 2-2 2z"/></g></svg>